<?xml version="1.0" encoding="utf-8"?>
<!-- Generator: Adobe Illustrator 19.1.0, SVG Export Plug-In . SVG Version: 6.00 Build 0)  -->
<svg version="1.1" id="Layer_1" xmlns="http://www.w3.org/2000/svg" xmlns:xlink="http://www.w3.org/1999/xlink" x="0px" y="0px"
	 viewBox="0 0 480 480" style="enable-background:new 0 0 480 480;" xml:space="preserve">
<style type="text/css">
	.st0{fill:none;stroke:#000000;stroke-miterlimit:10;}
	.st1{fill:#C42420;}
	.st2{fill:none;stroke:#000000;stroke-width:2;stroke-miterlimit:10;}
	.st3{fill:none;stroke:#639B24;stroke-width:2;stroke-miterlimit:10;}
	.st4{fill:#639B24;}
	.st5{stroke:#000000;}
</style>
<line class="st2" x1="43.3" y1="272.6" x2="283.8" y2="222.8"/>
<line class="st2" x1="283.8" y1="222.8" x2="437.5" y2="257.5"/>
<line class="st2" x1="437.5" y1="257.5" x2="223.1" y2="322.4"/>
<line class="st2" x1="223.1" y1="322.4" x2="43.3" y2="272.6"/>
<line class="st3" x1="240.9" y1="262.2" x2="241.6" y2="114.9"/>
<path class="st2" d="M270.4,267.4c25.4-6.6,16-17.2-17.7-23.7"/>
<path class="st2" d="M209.2,254.9c-18.6,4.2-12.4,12.8,15.9,19.3"/>
<polygon points="229.2,271.5 235.1,276.7 217.3,275.6 "/>
<polygon points="246,242.3 257,241 253,247.5 "/>
<polygon class="st4" points="241.6,107.2 249.7,120.8 233.4,120.5 "/>
<path d="M463.9,34.5c0-0.6,0-0.8-0.3-0.8c-0.3,0-0.9,0.7-1.1,1c-1-0.8-2.1-1-3.1-1c-4,0-5.2,2.2-5.2,4c0,0.4,0,1.5,1.3,2.7
	c1.1,0.9,2.2,1.2,3.7,1.5c1.8,0.4,2.3,0.5,3.1,1.1c0.6,0.5,1,1.2,1,2.2c0,1.4-0.8,3-3.8,3c-2.2,0-3.8-1.3-4.5-4.6
	c-0.1-0.6-0.1-0.6-0.2-0.7l-0.3-0.1c-0.4,0-0.4,0.2-0.4,0.8v4.5c0,0.6,0,0.8,0.3,0.8c0.2,0,0.2,0,0.8-0.7c0.2-0.2,0.2-0.3,0.7-0.8
	c1.3,1.6,3.1,1.6,3.6,1.6c3.5,0,5.2-1.9,5.2-4.6c0-1.8-1.1-2.9-1.4-3.2c-1.2-1-2.1-1.2-4.3-1.6c-1-0.2-3.4-0.7-3.4-2.7
	c0-1,0.7-2.6,3.7-2.6c3.6,0,3.8,3.1,3.9,4.1c0,0.3,0.3,0.3,0.4,0.3c0.4,0,0.4-0.2,0.4-0.8V34.5z M445.1,34.3v1
	c2.1,0,2.4,0.2,2.4,1.8v9.1c0,1.5-0.4,1.5-2.5,1.5v1c0.9-0.1,2.5-0.1,3.5-0.1c0.4,0,2.3,0,3.4,0.1v-1c-2.2,0-2.3-0.2-2.3-1.5V33.9
	L445.1,34.3z M449.7,28.1c0-0.9-0.7-1.6-1.6-1.6c-0.9,0-1.6,0.7-1.6,1.6c0,1,0.8,1.6,1.6,1.6C449.1,29.7,449.7,28.8,449.7,28.1z
	 M431.1,34.5c0-0.6,0-0.8-0.3-0.8c-0.3,0-0.9,0.7-1.1,1c-1-0.8-2.1-1-3.1-1c-4,0-5.2,2.2-5.2,4c0,0.4,0,1.5,1.3,2.7
	c1.1,0.9,2.2,1.2,3.7,1.5c1.8,0.4,2.3,0.5,3.1,1.1c0.6,0.5,1,1.2,1,2.2c0,1.4-0.8,3-3.8,3c-2.2,0-3.8-1.3-4.5-4.6
	c-0.1-0.6-0.1-0.6-0.2-0.7l-0.3-0.1c-0.4,0-0.4,0.2-0.4,0.8v4.5c0,0.6,0,0.8,0.3,0.8c0.2,0,0.2,0,0.8-0.7c0.2-0.2,0.2-0.3,0.7-0.8
	c1.3,1.6,3.1,1.6,3.6,1.6c3.5,0,5.2-1.9,5.2-4.6c0-1.8-1.1-2.9-1.4-3.2c-1.2-1-2.1-1.2-4.3-1.6c-1-0.2-3.4-0.7-3.4-2.7
	c0-1,0.7-2.6,3.7-2.6c3.6,0,3.8,3.1,3.9,4.1c0,0.3,0.3,0.3,0.4,0.3c0.4,0,0.4-0.2,0.4-0.8V34.5z M416.8,40.5c0-3.1,0-4-0.8-5.1
	c-1-1.3-2.5-1.5-3.7-1.5c-3.2,0-4.5,2.8-4.8,3.4h0v-3.4l-4.5,0.4v1c2.3,0,2.5,0.2,2.5,1.9v9c0,1.5-0.4,1.5-2.5,1.5v1
	c0.9-0.1,2.7-0.1,3.6-0.1c1,0,2.8,0,3.6,0.1v-1c-2.1,0-2.5,0-2.5-1.5V40c0-3.5,2.3-5.4,4.4-5.4s2.5,1.7,2.5,3.7v7.8
	c0,1.5-0.4,1.5-2.5,1.5v1c0.9-0.1,2.7-0.1,3.6-0.1c1,0,2.8,0,3.6,0.1v-1c-1.7,0-2.5,0-2.5-1V40.5z M393.8,48.3
	c-1.2,0-2.7-0.5-3.7-2.2c-0.9-1.5-0.9-3.5-0.9-4.9c0-1.3,0-3.3,1-4.8c0.9-1.4,2.4-2,3.6-2c1.3,0,2.7,0.6,3.6,1.9c1,1.5,1,3.6,1,4.9
	c0,1.2,0,3.2-0.9,4.8C396.6,47.6,395.1,48.3,393.8,48.3z M401,41.5c0-4.3-3.3-7.7-7.1-7.7c-4,0-7.2,3.5-7.2,7.7
	c0,4.3,3.3,7.5,7.1,7.5C397.7,49,401,45.7,401,41.5z M377.8,34.3v1c2.1,0,2.4,0.2,2.4,1.8v9.1c0,1.5-0.4,1.5-2.5,1.5v1
	c0.9-0.1,2.5-0.1,3.5-0.1c0.4,0,2.3,0,3.4,0.1v-1c-2.2,0-2.3-0.2-2.3-1.5V33.9L377.8,34.3z M382.4,28.1c0-0.9-0.7-1.6-1.6-1.6
	c-0.9,0-1.6,0.7-1.6,1.6c0,1,0.8,1.6,1.6,1.6C381.8,29.7,382.4,28.8,382.4,28.1z M374.6,34.5c0-0.6,0-0.8-0.3-0.8
	c-0.3,0-0.9,0.7-1.1,1c-1-0.8-2.1-1-3.1-1c-4,0-5.2,2.2-5.2,4c0,0.4,0,1.5,1.3,2.7c1.1,0.9,2.2,1.2,3.7,1.5c1.8,0.4,2.3,0.5,3.1,1.1
	c0.6,0.5,1,1.2,1,2.2c0,1.4-0.8,3-3.8,3c-2.2,0-3.8-1.3-4.5-4.6c-0.1-0.6-0.1-0.6-0.2-0.7l-0.3-0.1c-0.4,0-0.4,0.2-0.4,0.8v4.5
	c0,0.6,0,0.8,0.3,0.8c0.2,0,0.2,0,0.8-0.7c0.2-0.2,0.2-0.3,0.7-0.8c1.3,1.6,3.1,1.6,3.6,1.6c3.5,0,5.2-1.9,5.2-4.6
	c0-1.8-1.1-2.9-1.4-3.2c-1.2-1-2.1-1.2-4.3-1.6c-1-0.2-3.4-0.7-3.4-2.7c0-1,0.7-2.6,3.7-2.6c3.6,0,3.8,3.1,3.9,4.1
	c0,0.3,0.3,0.3,0.4,0.3c0.4,0,0.4-0.2,0.4-0.8V34.5z M360.4,40.5c0-3.1,0-4-0.8-5.1c-1-1.3-2.5-1.5-3.7-1.5c-3.2,0-4.5,2.8-4.8,3.4
	h0v-3.4l-4.5,0.4v1c2.3,0,2.5,0.2,2.5,1.9v9c0,1.5-0.4,1.5-2.5,1.5v1c0.9-0.1,2.7-0.1,3.6-0.1c1,0,2.8,0,3.6,0.1v-1
	c-2.1,0-2.5,0-2.5-1.5V40c0-3.5,2.3-5.4,4.4-5.4s2.5,1.7,2.5,3.7v7.8c0,1.5-0.4,1.5-2.5,1.5v1c0.9-0.1,2.7-0.1,3.6-0.1
	c1,0,2.8,0,3.6,0.1v-1c-1.7,0-2.5,0-2.5-1V40.5z M334.6,40.3c0.3-5.2,3.2-5.8,4.1-5.8c3.6,0,3.8,4.7,3.8,5.8H334.6z M343.8,40.9
	c0.7,0,0.8,0,0.8-0.6c0-3.4-1.8-6.5-5.8-6.5c-3.8,0-6.7,3.4-6.7,7.6c0,4.4,3.4,7.6,7.1,7.6c4,0,5.5-3.6,5.5-4.3l-0.4-0.3
	c-0.3,0-0.3,0.2-0.4,0.3c-0.9,2.8-3.1,3.6-4.5,3.6c-1.4,0-4.8-0.9-4.8-6.7v-0.6H343.8z M327.7,40.5c0-3.1,0-4-0.8-5.1
	c-1-1.3-2.5-1.5-3.7-1.5c-2.8,0-4.2,2-4.7,3.3c-0.5-2.6-2.3-3.3-4.4-3.3c-3.2,0-4.5,2.8-4.8,3.4h0v-3.4l-4.5,0.4v1
	c2.3,0,2.5,0.2,2.5,1.9v9c0,1.5-0.4,1.5-2.5,1.5v1c0.9-0.1,2.7-0.1,3.6-0.1c1,0,2.8,0,3.6,0.1v-1c-2.1,0-2.5,0-2.5-1.5V40
	c0-3.5,2.3-5.4,4.4-5.4c2.1,0,2.5,1.7,2.5,3.7v7.8c0,1.5-0.4,1.5-2.5,1.5v1c0.9-0.1,2.7-0.1,3.6-0.1c1,0,2.8,0,3.6,0.1v-1
	c-2.1,0-2.5,0-2.5-1.5V40c0-3.5,2.3-5.4,4.4-5.4c2.1,0,2.5,1.7,2.5,3.7v7.8c0,1.5-0.4,1.5-2.5,1.5v1c0.9-0.1,2.7-0.1,3.6-0.1
	c1,0,2.8,0,3.6,0.1v-1c-1.7,0-2.5,0-2.5-1V40.5z M295.9,34.3v1c2.1,0,2.4,0.2,2.4,1.8v9.1c0,1.5-0.4,1.5-2.5,1.5v1
	c0.9-0.1,2.5-0.1,3.5-0.1c0.4,0,2.3,0,3.4,0.1v-1c-2.2,0-2.3-0.2-2.3-1.5V33.9L295.9,34.3z M300.5,28.1c0-0.9-0.7-1.6-1.6-1.6
	c-0.9,0-1.6,0.7-1.6,1.6c0,1,0.8,1.6,1.6,1.6C299.9,29.7,300.5,28.8,300.5,28.1z M289,44.8c0,0.6,0,0.7-0.5,1.4
	c-0.8,1.2-2.2,2.1-3.8,2.1c-0.9,0-4.5-0.3-4.5-6.8c0-2.4,0.4-3.7,1.1-4.8c0.7-1,2-2.1,3.7-2.1c2.1,0,3.2,1.5,3.6,2
	c0.4,0.6,0.4,0.6,0.4,1.2V44.8z M286.5,25.9v1c2.3,0,2.5,0.2,2.5,1.9v7.4c-0.7-1-2.1-2.1-4.2-2.1c-3.9,0-7.2,3.3-7.2,7.5
	c0,4.2,3.2,7.5,6.8,7.5c2.5,0,4-1.7,4.5-2.3V49l4.7-0.3v-1c-2.3,0-2.5-0.2-2.5-1.9V25.5L286.5,25.9z M254.6,40.3
	c0.3-5.2,3.2-5.8,4.1-5.8c3.6,0,3.8,4.7,3.8,5.8H254.6z M263.9,40.9c0.7,0,0.8,0,0.8-0.6c0-3.4-1.8-6.5-5.8-6.5
	c-3.8,0-6.7,3.4-6.7,7.6c0,4.4,3.4,7.6,7.1,7.6c4,0,5.5-3.6,5.5-4.3l-0.4-0.3c-0.3,0-0.3,0.2-0.4,0.3c-0.9,2.8-3.1,3.6-4.5,3.6
	c-1.4,0-4.8-0.9-4.8-6.7v-0.6H263.9z M240.1,40.3c0.3-5.2,3.2-5.8,4.1-5.8c3.6,0,3.8,4.7,3.8,5.8H240.1z M249.3,40.9
	c0.7,0,0.8,0,0.8-0.6c0-3.4-1.8-6.5-5.8-6.5c-3.8,0-6.7,3.4-6.7,7.6c0,4.4,3.4,7.6,7.1,7.6c4,0,5.5-3.6,5.5-4.3l-0.4-0.3
	c-0.3,0-0.3,0.2-0.4,0.3c-0.9,2.8-3.1,3.6-4.5,3.6c-1.4,0-4.8-0.9-4.8-6.7v-0.6H249.3z M229.4,40.9c0-3.2,1.3-6.3,3.9-6.3
	c0.3,0,0.3,0,0.5,0c-0.3,0.1-0.8,0.3-0.8,1.2c0,1,0.8,1.3,1.3,1.3c0.7,0,1.3-0.4,1.3-1.3c0-1-0.9-1.9-2.3-1.9c-2.8,0-3.8,3.1-4,3.7
	h0v-3.7l-4.5,0.4v1c2.3,0,2.5,0.2,2.5,1.9v9c0,1.5-0.4,1.5-2.5,1.5v1c0.9-0.1,2.8-0.1,3.8-0.1c0.9,0,3.3,0,4,0.1v-1h-0.7
	c-2.4,0-2.5-0.4-2.5-1.6V40.9z M220.6,40.5c0-3.1,0-4-0.8-5.1c-1-1.3-2.5-1.5-3.7-1.5c-2.9,0-4.2,2.2-4.7,3.2h0V25.5l-4.6,0.4v1
	c2.3,0,2.5,0.2,2.5,1.9v17.5c0,1.5-0.4,1.5-2.5,1.5v1c0.9-0.1,2.7-0.1,3.6-0.1c1,0,2.8,0,3.6,0.1v-1c-2.1,0-2.5,0-2.5-1.5V40
	c0-3.5,2.3-5.4,4.4-5.4s2.5,1.7,2.5,3.7v7.8c0,1.5-0.4,1.5-2.5,1.5v1c0.9-0.1,2.7-0.1,3.6-0.1c1,0,2.8,0,3.6,0.1v-1
	c-1.7,0-2.5,0-2.5-1V40.5z M198.6,35.2h4.7v-1h-4.7v-6.1h-0.7c0,3.1-1.2,6.3-4.3,6.4v0.7h2.8v9.3c0,3.7,2.5,4.5,4.2,4.5
	c2.1,0,3.2-2.1,3.2-4.5v-1.9h-0.7v1.8c0,2.4-1,3.8-2.3,3.8c-2.3,0-2.3-3.1-2.3-3.7V35.2z M178.8,40.5c0-3.1,0-4-0.8-5.1
	c-1-1.3-2.5-1.5-3.7-1.5c-3.2,0-4.5,2.8-4.8,3.4h0v-3.4l-4.5,0.4v1c2.3,0,2.5,0.2,2.5,1.9v9c0,1.5-0.4,1.5-2.5,1.5v1
	c0.9-0.1,2.7-0.1,3.6-0.1c1,0,2.8,0,3.6,0.1v-1c-2.1,0-2.5,0-2.5-1.5V40c0-3.5,2.3-5.4,4.4-5.4s2.5,1.7,2.5,3.7v7.8
	c0,1.5-0.4,1.5-2.5,1.5v1c0.9-0.1,2.7-0.1,3.6-0.1c1,0,2.8,0,3.6,0.1v-1c-1.7,0-2.5,0-2.5-1V40.5z M156,34.3v1
	c2.1,0,2.4,0.2,2.4,1.8v9.1c0,1.5-0.4,1.5-2.5,1.5v1c0.9-0.1,2.5-0.1,3.5-0.1c0.4,0,2.3,0,3.4,0.1v-1c-2.2,0-2.3-0.2-2.3-1.5V33.9
	L156,34.3z M160.7,28.1c0-0.9-0.7-1.6-1.6-1.6c-0.9,0-1.6,0.7-1.6,1.6c0,1,0.8,1.6,1.6,1.6C160.1,29.7,160.7,28.8,160.7,28.1z
	 M140.7,40.5c0-3.1,0-4-0.8-5.1c-1-1.3-2.5-1.5-3.7-1.5c-3.2,0-4.5,2.8-4.8,3.4h0v-3.4l-4.5,0.4v1c2.3,0,2.5,0.2,2.5,1.9v9
	c0,1.5-0.4,1.5-2.5,1.5v1c0.9-0.1,2.7-0.1,3.6-0.1c1,0,2.8,0,3.6,0.1v-1c-2.1,0-2.5,0-2.5-1.5V40c0-3.5,2.3-5.4,4.4-5.4
	s2.5,1.7,2.5,3.7v7.8c0,1.5-0.4,1.5-2.5,1.5v1c0.9-0.1,2.7-0.1,3.6-0.1c1,0,2.8,0,3.6,0.1v-1c-1.7,0-2.5,0-2.5-1V40.5z M117.6,48.3
	c-1.2,0-2.7-0.5-3.7-2.2c-0.9-1.5-0.9-3.5-0.9-4.9c0-1.3,0-3.3,1-4.8c0.9-1.4,2.4-2,3.6-2c1.3,0,2.7,0.6,3.6,1.9c1,1.5,1,3.6,1,4.9
	c0,1.2,0,3.2-0.9,4.8C120.4,47.6,118.9,48.3,117.6,48.3z M124.8,41.5c0-4.3-3.3-7.7-7.1-7.7c-4,0-7.2,3.5-7.2,7.7
	c0,4.3,3.3,7.5,7.1,7.5C121.5,49,124.8,45.7,124.8,41.5z M101.6,34.3v1c2.1,0,2.4,0.2,2.4,1.8v9.1c0,1.5-0.4,1.5-2.5,1.5v1
	c0.9-0.1,2.5-0.1,3.5-0.1c0.4,0,2.3,0,3.4,0.1v-1c-2.2,0-2.3-0.2-2.3-1.5V33.9L101.6,34.3z M106.2,28.1c0-0.9-0.7-1.6-1.6-1.6
	c-0.9,0-1.6,0.7-1.6,1.6c0,1,0.8,1.6,1.6,1.6C105.6,29.7,106.2,28.8,106.2,28.1z M93.3,35.2H98v-1h-4.7v-6.1h-0.7
	c0,3.1-1.2,6.3-4.3,6.4v0.7h2.8v9.3c0,3.7,2.5,4.5,4.2,4.5c2.1,0,3.2-2.1,3.2-4.5v-1.9h-0.7v1.8c0,2.4-1,3.8-2.3,3.8
	c-2.3,0-2.3-3.1-2.3-3.7V35.2z M82,44c0,3.3-2.4,4.4-3.9,4.4c-1.6,0-3-1.2-3-2.8c0-4.4,5.7-4.8,6.9-4.9V44z M84.2,39.7
	c0-1.8,0-3.1-1.5-4.4c-1.2-1.1-2.7-1.5-4.1-1.5c-2.7,0-4.8,1.8-4.8,4c0,1,0.6,1.4,1.4,1.4c0.8,0,1.4-0.6,1.4-1.4
	c0-1.4-1.2-1.4-1.7-1.4c0.8-1.4,2.4-2,3.7-2c1.5,0,3.5,1.3,3.5,4.3V40c-6.7,0.1-9.2,2.9-9.2,5.5c0,2.6,3.1,3.5,5.1,3.5
	c2.2,0,3.7-1.3,4.3-2.9c0.1,1.6,1.2,2.8,2.6,2.8c0.7,0,2.6-0.5,2.6-3.1v-1.9h-0.7v1.9c0,1.9-0.8,2.2-1.3,2.2c-1.3,0-1.3-1.8-1.3-2.3
	V39.7z M64.2,35.2h4.7v-1h-4.7v-6.1h-0.7c0,3.1-1.2,6.3-4.3,6.4v0.7h2.8v9.3c0,3.7,2.5,4.5,4.2,4.5c2.1,0,3.2-2.1,3.2-4.5v-1.9h-0.7
	v1.8c0,2.4-1,3.8-2.3,3.8c-2.3,0-2.3-3.1-2.3-3.7V35.2z M50.4,48.3c-1.2,0-2.7-0.5-3.7-2.2c-0.9-1.5-0.9-3.5-0.9-4.9
	c0-1.3,0-3.3,1-4.8c0.9-1.4,2.4-2,3.6-2c1.3,0,2.7,0.6,3.6,1.9c1,1.5,1,3.6,1,4.9c0,1.2,0,3.2-0.9,4.8
	C53.3,47.6,51.7,48.3,50.4,48.3z M57.6,41.5c0-4.3-3.3-7.7-7.1-7.7c-4,0-7.2,3.5-7.2,7.7c0,4.3,3.3,7.5,7.1,7.5
	C54.4,49,57.6,45.7,57.6,41.5z M29.2,36.9h-3.7v-8.7c0-0.8,0-1.2,0.7-1.3c0.3,0,1.3,0,2,0c2.7,0,7,0,7,5
	C35.1,34.8,33.5,36.9,29.2,36.9z M32.3,37.3c3.3-0.8,5.9-2.9,5.9-5.4c0-3.2-3.8-6-8.6-6h-10v1h0.7c2.4,0,2.5,0.3,2.5,1.6v17.7
	c0,1.2-0.1,1.6-2.5,1.6h-0.7v1c0.8-0.1,3.5-0.1,4.5-0.1c1,0,3.7,0,4.5,0.1v-1h-0.7c-2.4,0-2.5-0.3-2.5-1.6v-8.5h3.9
	c1.3,0,2.5,0.4,3.4,1.3c1.1,1.3,1.1,2,1.1,4.3c0,2.6,0,3.5,1.5,4.9c0.5,0.5,1.9,1.3,3.8,1.3c2.6,0,3-2.9,3-3.6c0-0.2,0-0.5-0.4-0.5
	c-0.3,0-0.3,0.2-0.4,0.5c-0.2,2-1.1,2.9-2.2,2.9c-1.5,0-1.9-1.6-2.1-3.3c0-0.2-0.2-1.7-0.3-2.5c-0.2-1.7-0.4-2.7-1.4-3.8
	C35,38.7,34.1,37.8,32.3,37.3z"/>
<path class="st4" d="M455.8,87.4c0-0.9-0.8-1.6-1.6-1.6c-1,0-1.6,0.8-1.6,1.6c0,1,0.8,1.6,1.6,1.6C455.1,89,455.8,88.3,455.8,87.4z
	 M442.6,81.2c0-3.2,1.3-6.3,3.9-6.3c0.3,0,0.3,0,0.5,0c-0.3,0.1-0.8,0.3-0.8,1.2c0,1,0.8,1.3,1.3,1.3c0.7,0,1.3-0.4,1.3-1.3
	c0-1-0.9-1.9-2.3-1.9c-2.8,0-3.8,3.1-4,3.7h0v-3.7l-4.5,0.4v1c2.3,0,2.5,0.2,2.5,1.9v9c0,1.5-0.4,1.5-2.5,1.5v1
	c0.9-0.1,2.8-0.1,3.8-0.1c0.9,0,3.3,0,4,0.1v-1h-0.7c-2.4,0-2.5-0.4-2.5-1.6V81.2z M428.8,88.6c-1.2,0-2.7-0.5-3.7-2.2
	c-0.9-1.5-0.9-3.5-0.9-4.9c0-1.3,0-3.3,1-4.8c0.9-1.4,2.4-2,3.6-2c1.3,0,2.7,0.6,3.6,1.9c1,1.5,1,3.6,1,4.9c0,1.2,0,3.2-0.9,4.8
	C431.6,88,430.1,88.6,428.8,88.6z M436,81.8c0-4.3-3.3-7.7-7.1-7.7c-4,0-7.2,3.5-7.2,7.7c0,4.3,3.3,7.5,7.1,7.5
	C432.7,89.3,436,86.1,436,81.8z M413.5,75.6h4.7v-1h-4.7v-6.1h-0.7c0,3.1-1.2,6.3-4.3,6.4v0.7h2.8v9.3c0,3.7,2.5,4.5,4.2,4.5
	c2.1,0,3.2-2.1,3.2-4.5v-1.9h-0.7v1.8c0,2.4-1,3.8-2.3,3.8c-2.3,0-2.3-3.1-2.3-3.7V75.6z M405.5,76.6c-0.4,0-1.6,0-1.6,1.4
	c0,0.8,0.6,1.4,1.4,1.4c0.8,0,1.4-0.5,1.4-1.4c0-2.2-2.3-3.8-5-3.8c-3.9,0-7,3.5-7,7.7c0,4.3,3.2,7.5,7,7.5c4.4,0,5.4-4,5.4-4.3
	s-0.2-0.3-0.3-0.3c-0.3,0-0.3,0.1-0.4,0.5c-0.7,2.4-2.5,3.4-4.3,3.4c-2,0-4.7-1.8-4.7-6.8c0-5.5,2.8-6.9,4.5-6.9
	C402.9,74.8,404.7,75.3,405.5,76.6z M382.4,80.6c0.3-5.2,3.2-5.8,4.1-5.8c3.6,0,3.8,4.7,3.8,5.8H382.4z M391.7,81.2
	c0.7,0,0.8,0,0.8-0.6c0-3.4-1.8-6.5-5.8-6.5c-3.8,0-6.7,3.4-6.7,7.6c0,4.4,3.4,7.6,7.1,7.6c4,0,5.5-3.6,5.5-4.3l-0.4-0.3
	c-0.3,0-0.3,0.2-0.4,0.3c-0.9,2.8-3.1,3.6-4.5,3.6c-1.4,0-4.8-0.9-4.8-6.7v-0.6H391.7z M376.1,77.8c0.3-0.7,0.9-2.2,3-2.2v-1
	c-1,0.1-1.4,0.1-2.5,0.1c-0.7,0-1.2,0-2.7-0.1v1c1.4,0.1,1.6,1.1,1.6,1.4c0,0.3-0.1,0.5-0.2,0.9l-3.4,8.6l-3.7-9.4
	c-0.2-0.5-0.2-0.5-0.2-0.6c0-0.9,1.3-0.9,1.9-0.9v-1c-0.8,0.1-2.6,0.1-3.5,0.1c-1.1,0-1.2,0-3.2-0.1v1c1.9,0,2.2,0.1,2.6,1.2
	l4.8,11.9c0.2,0.5,0.2,0.6,0.6,0.6c0.2,0,0.4-0.1,0.7-0.6L376.1,77.8z M340.7,80.6c0.3-5.2,3.2-5.8,4.1-5.8c3.6,0,3.8,4.7,3.8,5.8
	H340.7z M349.9,81.2c0.7,0,0.8,0,0.8-0.6c0-3.4-1.8-6.5-5.8-6.5c-3.8,0-6.7,3.4-6.7,7.6c0,4.4,3.4,7.6,7.1,7.6c4,0,5.5-3.6,5.5-4.3
	l-0.4-0.3c-0.3,0-0.3,0.2-0.4,0.3c-0.9,2.8-3.1,3.6-4.5,3.6c-1.4,0-4.8-0.9-4.8-6.7v-0.6H349.9z M333.8,65.8l-4.6,0.4v1
	c2.3,0,2.5,0.2,2.5,1.9v17.5c0,1.5-0.4,1.5-2.5,1.5v1c0.9-0.1,2.6-0.1,3.6-0.1s2.7,0,3.6,0.1v-1c-2.1,0-2.5,0-2.5-1.5V65.8z
	 M319.9,95.1c-3.2,0-5.6-1.6-5.6-3.5c0-0.3,0.1-1.6,1.3-2.4c0.7-0.5,1-0.5,3.4-0.5c2.8,0,6.5,0,6.5,2.9
	C325.5,93.6,322.9,95.1,319.9,95.1z M319,83.3c-2.9,0-2.9-3.4-2.9-4.1c0-0.6,0-2,0.6-2.9c0.6-1,1.6-1.3,2.3-1.3
	c2.9,0,2.9,3.4,2.9,4.1c0,0.6,0,2-0.6,2.9C320.7,82.9,319.7,83.3,319,83.3z M315.7,82.9c1.6,1,2.9,1,3.3,1c3,0,5.2-2.3,5.2-4.8
	c0-0.9-0.3-2.2-1.3-3.2c1.3-1.3,2.9-1.3,3-1.3l0.4,0.1c-0.3,0.1-0.5,0.5-0.5,0.8c0,0.5,0.3,0.9,0.9,0.9c0.3,0,0.9-0.2,0.9-0.9
	c0-0.6-0.5-1.5-1.6-1.5c-1.7,0-3,1.1-3.5,1.6c-1-0.8-2.2-1.2-3.4-1.2c-3,0-5.2,2.3-5.2,4.8c0,1.9,1.2,3.1,1.5,3.4
	c-0.4,0.5-1,1.5-1,2.8c0,1.9,1.2,2.8,1.4,2.9c-1.5,0.4-3.1,1.6-3.1,3.4c0,2.3,3.1,4.2,7.2,4.2c4,0,7.3-1.8,7.3-4.3
	c0-0.8-0.2-2.8-2.2-3.8c-1.7-0.9-3.4-0.9-6.2-0.9c-2,0-2.3,0-2.9-0.6c-0.3-0.3-0.6-1-0.6-1.7C315.1,84,315.3,83.4,315.7,82.9z
	 M308.4,80.9c0-3.1,0-4-0.8-5.1c-1-1.3-2.5-1.5-3.7-1.5c-3.2,0-4.5,2.8-4.8,3.4h0v-3.4l-4.5,0.4v1c2.3,0,2.5,0.2,2.5,1.9v9
	c0,1.5-0.4,1.5-2.5,1.5v1c0.9-0.1,2.7-0.1,3.6-0.1c1,0,2.8,0,3.6,0.1v-1c-2.1,0-2.5,0-2.5-1.5v-6.2c0-3.5,2.3-5.4,4.4-5.4
	s2.5,1.7,2.5,3.7v7.8c0,1.5-0.4,1.5-2.5,1.5v1c0.9-0.1,2.7-0.1,3.6-0.1c1,0,2.8,0,3.6,0.1v-1c-1.7,0-2.5,0-2.5-1V80.9z M285.7,74.6
	v1c2.1,0,2.4,0.2,2.4,1.8v9.1c0,1.5-0.4,1.5-2.5,1.5v1c0.9-0.1,2.5-0.1,3.5-0.1c0.4,0,2.3,0,3.4,0.1v-1c-2.2,0-2.3-0.2-2.3-1.5V74.3
	L285.7,74.6z M290.3,68.4c0-0.9-0.7-1.6-1.6-1.6c-0.9,0-1.6,0.7-1.6,1.6c0,1,0.8,1.6,1.6,1.6C289.7,70,290.3,69.2,290.3,68.4z
	 M282.5,74.9c0-0.6,0-0.8-0.3-0.8c-0.3,0-0.9,0.7-1.1,1c-1-0.8-2.1-1-3.1-1c-4,0-5.2,2.2-5.2,4c0,0.4,0,1.5,1.3,2.7
	c1.1,0.9,2.2,1.2,3.7,1.5c1.8,0.4,2.3,0.5,3.1,1.1c0.6,0.5,1,1.2,1,2.2c0,1.4-0.8,3-3.8,3c-2.2,0-3.8-1.3-4.5-4.6
	c-0.1-0.6-0.1-0.6-0.2-0.7l-0.3-0.1c-0.4,0-0.4,0.2-0.4,0.8v4.5c0,0.6,0,0.8,0.3,0.8c0.2,0,0.2,0,0.8-0.7c0.2-0.2,0.2-0.3,0.7-0.8
	c1.3,1.6,3.1,1.6,3.6,1.6c3.5,0,5.2-1.9,5.2-4.6c0-1.8-1.1-2.9-1.4-3.2c-1.2-1-2.1-1.2-4.3-1.6c-1-0.2-3.4-0.7-3.4-2.7
	c0-1,0.7-2.6,3.7-2.6c3.6,0,3.8,3.1,3.9,4.1c0,0.3,0.3,0.3,0.4,0.3c0.4,0,0.4-0.2,0.4-0.8V74.9z M255,84.3c0,3.3-2.4,4.4-3.9,4.4
	c-1.6,0-3-1.2-3-2.8c0-4.4,5.7-4.8,6.9-4.9V84.3z M257.2,80.1c0-1.8,0-3.1-1.5-4.4c-1.2-1.1-2.7-1.5-4.1-1.5c-2.7,0-4.8,1.8-4.8,4
	c0,1,0.6,1.4,1.4,1.4c0.8,0,1.4-0.6,1.4-1.4c0-1.4-1.2-1.4-1.7-1.4c0.8-1.4,2.4-2,3.7-2c1.5,0,3.5,1.3,3.5,4.3v1.3
	c-6.7,0.1-9.2,2.9-9.2,5.5c0,2.6,3.1,3.5,5.1,3.5c2.2,0,3.7-1.3,4.3-2.9c0.1,1.6,1.2,2.8,2.6,2.8c0.7,0,2.6-0.5,2.6-3.1v-1.9h-0.7
	V86c0,1.9-0.8,2.2-1.3,2.2c-1.3,0-1.3-1.8-1.3-2.3V80.1z M230.1,80.9c0-3.1,0-4-0.8-5.1c-1-1.3-2.5-1.5-3.7-1.5
	c-2.9,0-4.2,2.2-4.7,3.2h0V65.8l-4.6,0.4v1c2.3,0,2.5,0.2,2.5,1.9v17.5c0,1.5-0.4,1.5-2.5,1.5v1c0.9-0.1,2.7-0.1,3.6-0.1
	c1,0,2.8,0,3.6,0.1v-1c-2.1,0-2.5,0-2.5-1.5v-6.2c0-3.5,2.3-5.4,4.4-5.4s2.5,1.7,2.5,3.7v7.8c0,1.5-0.4,1.5-2.5,1.5v1
	c0.9-0.1,2.7-0.1,3.6-0.1c1,0,2.8,0,3.6,0.1v-1c-1.7,0-2.5,0-2.5-1V80.9z M208.2,75.6h4.7v-1h-4.7v-6.1h-0.7c0,3.1-1.2,6.3-4.3,6.4
	v0.7h2.8v9.3c0,3.7,2.5,4.5,4.2,4.5c2.1,0,3.2-2.1,3.2-4.5v-1.9h-0.7v1.8c0,2.4-1,3.8-2.3,3.8c-2.3,0-2.3-3.1-2.3-3.7V75.6z
	 M194.7,74.6v1c2.1,0,2.4,0.2,2.4,1.8v9.1c0,1.5-0.4,1.5-2.5,1.5v1c0.9-0.1,2.5-0.1,3.5-0.1c0.4,0,2.3,0,3.4,0.1v-1
	c-2.2,0-2.3-0.2-2.3-1.5V74.3L194.7,74.6z M199.3,68.4c0-0.9-0.7-1.6-1.6-1.6c-0.9,0-1.6,0.7-1.6,1.6c0,1,0.8,1.6,1.6,1.6
	C198.7,70,199.3,69.2,199.3,68.4z M190,77.8c0.7-2.1,2.2-2.2,2.8-2.2v-1c-0.8,0.1-1.4,0.1-2.5,0.1c-1,0-1,0-2.8-0.1v1
	c1.5,0.1,1.9,1,1.9,1.6c0,0,0,0.3-0.1,0.6l-3.1,8.7l-3.3-9.4c-0.2-0.4-0.2-0.5-0.2-0.6c0-0.9,1.2-0.9,1.9-0.9v-1
	c-0.9,0.1-2.3,0.1-3.3,0.1c-1.1,0-1.1,0-3-0.1v1c1.3,0,1.7,0.1,2.1,0.5c0.2,0.2,0.6,1.3,0.8,2l-2.8,8.1l-3.2-9.1
	c-0.2-0.4-0.2-0.5-0.2-0.6c0-0.9,1.3-0.9,1.9-0.9v-1c-0.8,0.1-2.5,0.1-3.4,0.1c-0.9,0-1,0-3.1-0.1v1c1.7,0,2,0.1,2.4,1.2l4.2,11.9
	c0.1,0.4,0.2,0.6,0.6,0.6c0.3,0,0.5-0.1,0.6-0.6l3.3-9.5l3.3,9.5c0.2,0.5,0.3,0.6,0.6,0.6c0.4,0,0.5-0.2,0.6-0.6L190,77.8z
	 M153.3,85.1c0,0.6,0,0.7-0.5,1.4c-0.8,1.2-2.2,2.1-3.8,2.1c-0.9,0-4.5-0.3-4.5-6.8c0-2.4,0.4-3.7,1.1-4.8c0.7-1,2-2.1,3.7-2.1
	c2.1,0,3.2,1.5,3.6,2c0.4,0.6,0.4,0.6,0.4,1.2V85.1z M150.8,66.2v1c2.3,0,2.5,0.2,2.5,1.9v7.4c-0.7-1-2.1-2.1-4.2-2.1
	c-3.9,0-7.2,3.3-7.2,7.5c0,4.2,3.2,7.5,6.8,7.5c2.5,0,4-1.7,4.5-2.3v2.3L158,89v-1c-2.3,0-2.5-0.2-2.5-1.9V65.8L150.8,66.2z
	 M129.9,80.6c0.3-5.2,3.2-5.8,4.1-5.8c3.6,0,3.8,4.7,3.8,5.8H129.9z M139.1,81.2c0.7,0,0.8,0,0.8-0.6c0-3.4-1.8-6.5-5.8-6.5
	c-3.8,0-6.7,3.4-6.7,7.6c0,4.4,3.4,7.6,7.1,7.6c4,0,5.5-3.6,5.5-4.3l-0.4-0.3c-0.3,0-0.3,0.2-0.4,0.3c-0.9,2.8-3.1,3.6-4.5,3.6
	c-1.4,0-4.8-0.9-4.8-6.7v-0.6H139.1z M112.9,78.3c0-0.6,0-0.7,0.4-1.2c0.8-1.2,2.3-2.2,3.9-2.2c1,0,4.5,0.4,4.5,6.8
	c0,2.2-0.3,3.6-1.1,4.8c-0.7,1-2,2.1-3.7,2.1c-1.8,0-3-1.2-3.5-2.1c-0.4-0.7-0.4-0.8-0.4-1.4V78.3z M112.8,65.8l-4.6,0.4v1
	c2.3,0,2.5,0.2,2.5,1.9V89h0.7c0.1-0.3,1.1-1.9,1.2-2.2c0.8,1.2,2.2,2.5,4.3,2.5c3.8,0,7.2-3.2,7.2-7.5c0-4.2-3.1-7.5-6.8-7.5
	c-1.8,0-3.4,0.8-4.5,2.2V65.8z M99.4,74.6v1c2.1,0,2.4,0.2,2.4,1.8v9.1c0,1.5-0.4,1.5-2.5,1.5v1c0.9-0.1,2.5-0.1,3.5-0.1
	c0.4,0,2.3,0,3.4,0.1v-1c-2.2,0-2.3-0.2-2.3-1.5V74.3L99.4,74.6z M104,68.4c0-0.9-0.7-1.6-1.6-1.6c-0.9,0-1.6,0.7-1.6,1.6
	c0,1,0.8,1.6,1.6,1.6C103.4,70,104,69.2,104,68.4z M91,81.2c0-3.2,1.3-6.3,3.9-6.3c0.3,0,0.3,0,0.5,0c-0.3,0.1-0.8,0.3-0.8,1.2
	c0,1,0.8,1.3,1.3,1.3c0.7,0,1.3-0.4,1.3-1.3c0-1-0.9-1.9-2.3-1.9c-2.8,0-3.8,3.1-4,3.7h0v-3.7l-4.5,0.4v1c2.3,0,2.5,0.2,2.5,1.9v9
	c0,1.5-0.4,1.5-2.5,1.5v1c0.9-0.1,2.8-0.1,3.8-0.1c0.9,0,3.3,0,4,0.1v-1h-0.7c-2.4,0-2.5-0.4-2.5-1.6V81.2z M83,76.6
	c-0.4,0-1.6,0-1.6,1.4c0,0.8,0.6,1.4,1.4,1.4c0.8,0,1.4-0.5,1.4-1.4c0-2.2-2.3-3.8-5-3.8c-3.9,0-7,3.5-7,7.7c0,4.3,3.2,7.5,7,7.5
	c4.4,0,5.4-4,5.4-4.3s-0.2-0.3-0.3-0.3c-0.3,0-0.3,0.1-0.4,0.5c-0.7,2.4-2.5,3.4-4.3,3.4c-2,0-4.7-1.8-4.7-6.8
	c0-5.5,2.8-6.9,4.5-6.9C80.4,74.8,82.2,75.3,83,76.6z M69,74.9c0-0.6,0-0.8-0.3-0.8c-0.3,0-0.9,0.7-1.1,1c-1-0.8-2.1-1-3.1-1
	c-4,0-5.2,2.2-5.2,4c0,0.4,0,1.5,1.3,2.7c1.1,0.9,2.2,1.2,3.7,1.5c1.8,0.4,2.3,0.5,3.1,1.1c0.6,0.5,1,1.2,1,2.2c0,1.4-0.8,3-3.8,3
	c-2.2,0-3.8-1.3-4.5-4.6c-0.1-0.6-0.1-0.6-0.2-0.7l-0.3-0.1c-0.4,0-0.4,0.2-0.4,0.8v4.5c0,0.6,0,0.8,0.3,0.8c0.2,0,0.2,0,0.8-0.7
	c0.2-0.2,0.2-0.3,0.7-0.8c1.3,1.6,3.1,1.6,3.6,1.6c3.5,0,5.2-1.9,5.2-4.6c0-1.8-1.1-2.9-1.4-3.2c-1.2-1-2.1-1.2-4.3-1.6
	c-1-0.2-3.4-0.7-3.4-2.7c0-1,0.7-2.6,3.7-2.6c3.6,0,3.8,3.1,3.9,4.1c0,0.3,0.3,0.3,0.4,0.3c0.4,0,0.4-0.2,0.4-0.8V74.9z M47.1,80.6
	c0.3-5.2,3.2-5.8,4.1-5.8c3.6,0,3.8,4.7,3.8,5.8H47.1z M56.3,81.2c0.7,0,0.8,0,0.8-0.6c0-3.4-1.8-6.5-5.8-6.5
	c-3.8,0-6.7,3.4-6.7,7.6c0,4.4,3.4,7.6,7.1,7.6c4,0,5.5-3.6,5.5-4.3l-0.4-0.3c-0.3,0-0.3,0.2-0.4,0.3c-0.9,2.8-3.1,3.6-4.5,3.6
	c-1.4,0-4.8-0.9-4.8-6.7v-0.6H56.3z M37.8,85.1c0,0.6,0,0.7-0.5,1.4c-0.8,1.2-2.2,2.1-3.8,2.1c-0.9,0-4.5-0.3-4.5-6.8
	c0-2.4,0.4-3.7,1.1-4.8c0.7-1,2-2.1,3.7-2.1c2.1,0,3.2,1.5,3.6,2c0.4,0.6,0.4,0.6,0.4,1.2V85.1z M35.4,66.2v1c2.3,0,2.5,0.2,2.5,1.9
	v7.4c-0.7-1-2.1-2.1-4.2-2.1c-3.9,0-7.2,3.3-7.2,7.5c0,4.2,3.2,7.5,6.8,7.5c2.5,0,4-1.7,4.5-2.3v2.3l4.7-0.3v-1
	c-2.3,0-2.5-0.2-2.5-1.9V65.8L35.4,66.2z"/>
<path d="M47.2,450.4l-5-0.8c-0.8-0.3-1.6-0.5-1.9-0.5c-0.6,0-2.5-1.1-5.8-3.5c-3.4-2.4-5.7-5.7-6.3-8.9c-0.2-1.3-0.3-2.5-0.2-2.7
	c0.1-0.2-0.5-1.2-1.3-2.2c-2.6-3.1-3.1-5.2-2.5-9.8c0.3-2.3,0.3-4.7,0.1-5.3c-0.3-0.6-0.7-2.2-1.1-3.4c-0.8-3,0.2-5.4,3.4-7.9
	l2.2-1.8l-0.6-2c-0.4-1.3-0.4-2.9-0.1-4.4c0.5-2.1,0.7-2.6,2.6-4.2c3.2-2.8,14.4-3.1,23.6-3.3 M54.3,389.7c0.7,0,8.7,1,10.8,0.8
	c2.3-0.2,3.3-1,3.5-3c0.1-1.1-0.3-5.6-1.3-13.8c-0.7-5.7-2.8-9.6,1.9-16.2c2.8-3.9,3.8-4.8,6-5.4c5.4-1.6,7.9,3.1,7.1,8.6
	c-1,2.2,1.4,8,2.3,10.8c0.4,1.2,0.8,3,0.9,4c0.3,2.2,1.3,4.6,4.3,10.4c2.2,4.3,3.5,7.8,4,10.9c0.5,3.2,4.3,12.1,7.5,17.5
	c1.1,1.9,2.9,4.1,6.1,7.4c3.4,3.6,5,5.6,6.9,8.5c1.3,2.1,2.4,3.9,2.4,4.1l-2.8,1.5l-2.5-3.9c-2-3.1-3.3-4.8-6.2-7.7
	c-2.1-2.1-4.5-4.9-5.4-6.2c-3.6-5.1-8.1-15.3-9.4-21.5c-0.7-3.3-2.1-6.5-5.3-12.6c-1.5-2.9-2.5-5.7-2.9-8.4c-0.2-1.3-0.7-3.3-1-4.4
	c-0.6-1.9-2.9-7.7-1.6-12.9c-0.2-2-0.7-3.5-2.5-3.2c-1.8,0.3-2.1,0.5-4.7,4c-4.6,6.3-2.1,9.2-1.2,17.4c1.2,9.6,1.2,11.4,0.5,13.1
	c-1,2.5-3.4,4-6.4,4.1c-2.3,0.1-9.8-0.5-11.1-0.8c-0.5-0.2-7.3-0.8-7.5,1.4c-0.4,3.9,6.1,5,8.2,6.4c2.4,1.6,5,5.1,5.2,7
	c0.1,0.7-0.1,1.8-0.4,2.4c-0.3,0.7-0.3,1.1,0.1,1.4c0.3,0.2,1.2,1,1.9,1.9c1,1.2,1.4,2,1.7,4c0.6,3.4,0.1,4.4-2.7,6.1l-2.2,1.3
	l1.6,2c2.8,3.6,2.2,6.9-1.8,9.7c-1.8,1.3-2.2,1.7-1.9,2.1c0.6,0.9,0.9,4,0.5,5.7c-0.2,0.9-0.9,2.1-1.4,2.6l-1,1l4.8,2.6
	c4.7,2,7.5,1.7,12.8,1.8c8.4,0,11.8-2.7,14.9-0.7c1.3,0.9,6,1.9,5.9,2c-0.2,0.5-0.4,0.9-0.5,1.2s-0.1,0.2-0.5,1.5
	c0,0-4.2-0.6-6.8-2.1c-1.2-0.7-5.6,1.2-13.1,1.6c-6.6,0.4-9.3-0.6-13.8-2.1c-3.8-1.2-5.3-2.6-7.7-3l-3.2-0.5 M53.8,442.9
	c0.3-3.1-1.7-4.4-6.8-4.4c-4.2,0-8-0.6-12.2-1.7c-2-0.6-3.2-0.7-3.3-0.3c-0.2,1.2,2.4,4.7,4.9,6.5c3.7,2.8,5,3.3,8.9,3.7
	C50.2,447.1,53.6,445.6,53.8,442.9L53.8,442.9z M58.4,431.6c0.3-1.5-1.1-3.4-3.3-4.6c-1.4-0.7-2.4-0.9-4.7-0.6
	c-1.7,0.2-3.2,0.2-3.5,0.1c-0.2-0.1-2.1-0.2-4-0.1c-5,0.1-8.6-0.7-12.3-2.6l-3.1-1.7l-0.1,2.1c-0.1,1.9,0.1,2.4,1.5,4.5
	c1.2,1.7,2.9,2.8,4.5,4c2,1,9.5,2.4,13.1,2.4c2.1,0,4.8,0.1,6,0.1c1.8,0.1,2.4-0.1,4-1.2C57.7,433.1,58.2,432.5,58.4,431.6
	L58.4,431.6L58.4,431.6z M60.3,419c0-1.7-1-3.4-2.4-4.3c-1-0.6-2.1-0.7-4.5-0.5c-2.1,0.2-5.3-0.1-9.6-0.9c-6.4-1.2-9.4-2.3-11.6-4.5
	c-1.7-1.6-2.5-1.7-4-0.2c-2.4,2.3-2.4,3.7-0.2,8.2c1.2,2.5,1.2,2.5,4.4,4.2c3.7,1.9,4.9,2.2,12.3,2.2c5.7,0,8.2-0.2,11.6-1.2
	C59.3,421.1,60.3,420.3,60.3,419L60.3,419z M56.6,409c0.3-0.6,0.1-1.2-0.9-2.6c-1.1-1.5-2-2.2-5.9-4.3c-5-2.7-5.7-4.3-6.3-5.3
	c-0.2-1.5,1.4-3.7,1.4-3.7s-9,0.1-10.9,1.4c-1.7,1.2-2.9,3.1-2.9,4.6c0.1,4.5,2.9,7.3,6.7,9.3c3.3,1.3,13,2.8,15.4,2.5
	C55.6,410.4,56,410.1,56.6,409L56.6,409L56.6,409z"/>
<path d="M467.7,431.9c0-1-0.2-2.7-2.6-2.7c-1.6,0-2.4,1.2-2.7,2h0v-2l-2.4,0.2v0.5c1.2,0,1.4,0.1,1.4,1.1v5.6c0,0.8-0.1,0.9-1.4,0.9
	v0.5c0.5,0,1.4,0,1.9,0s1.4,0,1.9,0v-0.5c-1.3,0-1.4-0.1-1.4-0.9v-3.9c0-1.8,1.1-3.2,2.5-3.2c1.5,0,1.6,1.3,1.6,2.3v4.8
	c0,0.8-0.1,0.9-1.4,0.9v0.5c0.5,0,1.4,0,1.9,0c0.5,0,1.4,0,1.9,0v-0.5c-1.3,0-1.4-0.1-1.4-0.9V431.9z M454.7,437.8
	c-0.9,0-1.7-0.6-2.2-1.3c-0.5-0.9-0.6-2-0.6-2.9c0-0.8,0-1.9,0.6-2.8c0.4-0.7,1.2-1.3,2.2-1.3c0.9,0,1.7,0.5,2.1,1.2
	c0.6,0.9,0.6,2.3,0.6,2.9c0,0.8,0,2-0.6,3C456.4,437.5,455.5,437.8,454.7,437.8z M458.8,433.7c0-2.6-1.9-4.6-4.1-4.6
	c-2.2,0-4.1,2-4.1,4.6c0,2.5,1.9,4.5,4.1,4.5C456.9,438.2,458.8,436.3,458.8,433.7z M445.9,429.5v0.5c1.1,0,1.3,0.1,1.3,1.1v5.6
	c0,0.8-0.1,0.9-1.4,0.9v0.5c0.5,0,1.3,0,1.8,0c0.5,0,1.3,0,1.8,0v-0.5c-1.2,0-1.2-0.1-1.2-0.8v-7.4L445.9,429.5z M448.2,425.7
	c0-0.4-0.4-0.8-0.8-0.8c-0.4,0-0.8,0.4-0.8,0.8c0,0.4,0.4,0.8,0.8,0.8C447.9,426.5,448.2,426.1,448.2,425.7z M441,429.9h2.8v-0.5
	H441v-3.7h-0.4c0,2.1-0.7,3.9-2.5,3.9v0.3h1.7v5.6c0,0.4,0,2.6,2.3,2.6c1.2,0,1.9-1.2,1.9-2.7v-1.1h-0.4v1.1c0,1.4-0.5,2.3-1.4,2.3
	c-0.6,0-1.4-0.4-1.4-2.2V429.9z M436.8,431c-0.4,0-0.9,0-0.9,0.7c0,0.6,0.5,0.7,0.7,0.7c0.1,0,0.7-0.1,0.7-0.8
	c0-1.4-1.4-2.5-2.9-2.5c-2.1,0-3.9,2-3.9,4.5c0,2.7,1.9,4.5,3.9,4.5c2.5,0,3.1-2.3,3.1-2.5c0-0.1,0-0.1-0.2-0.1
	c-0.1,0-0.2,0-0.2,0.3c-0.5,1.6-1.7,2-2.5,2c-1.3,0-2.8-1.2-2.8-4.2c0-3.1,1.5-4.2,2.7-4.2C435.2,429.5,436.4,429.9,436.8,431z
	 M423.5,433c0.1-2.9,1.7-3.5,2.5-3.5c1.4,0,2.3,1.3,2.3,3.5H423.5z M429.3,433.3c0.1-0.1,0.1-0.1,0.1-0.3c0-2-1.1-3.8-3.4-3.8
	c-2.1,0-3.8,2-3.8,4.5c0,2.6,1.9,4.5,4,4.5c2.3,0,3.1-2.1,3.1-2.6c0-0.1-0.1-0.1-0.2-0.1c-0.1,0-0.2,0-0.2,0.3c-0.4,1.4-1.5,2-2.6,2
	c-0.9,0-1.7-0.5-2.3-1.4c-0.6-1-0.6-2.2-0.6-3.2H429.3z M417.6,433.3c0-1.9,0.8-3.7,2.3-3.7c0.1,0,0.3,0,0.4,0.1
	c0,0-0.4,0.1-0.4,0.7c0,0.5,0.4,0.7,0.7,0.7c0.2,0,0.7-0.1,0.7-0.7c0-0.6-0.6-1-1.3-1c-1.5,0-2.2,1.5-2.4,2.2h0v-2.2l-2.3,0.2v0.5
	c1.2,0,1.4,0.1,1.4,1.1v5.6c0,0.8-0.1,0.9-1.4,0.9v0.5c0.5,0,1.4,0,1.9,0c0.6,0,1.6,0,2.1,0v-0.5c-1.4,0-1.7,0-1.7-0.9V433.3z
	 M410.3,429.5v0.5c1.1,0,1.3,0.1,1.3,1.1v5.6c0,0.8-0.1,0.9-1.4,0.9v0.5c0.5,0,1.3,0,1.8,0c0.5,0,1.3,0,1.8,0v-0.5
	c-1.2,0-1.2-0.1-1.2-0.8v-7.4L410.3,429.5z M412.6,425.7c0-0.4-0.4-0.8-0.8-0.8c-0.4,0-0.8,0.4-0.8,0.8c0,0.4,0.4,0.8,0.8,0.8
	C412.3,426.5,412.6,426.1,412.6,425.7z M406.5,435.6c0,0.6-0.4,1.1-0.8,1.5c-0.7,0.6-1.4,0.7-1.7,0.7c-0.6,0-2.7-0.3-2.7-4.1
	c0-3.9,2.3-4.2,2.9-4.2c0.9,0,1.7,0.5,2.1,1.2c0.3,0.4,0.3,0.5,0.3,0.8V435.6z M405.1,424.3v0.5c1.2,0,1.4,0.1,1.4,1.1v4.7
	c-0.1-0.1-0.9-1.4-2.5-1.4c-2,0-4,1.8-4,4.5c0,2.6,1.9,4.5,3.8,4.5c1.7,0,2.6-1.3,2.7-1.5v1.5l2.4-0.2v-0.5c-1.2,0-1.4-0.1-1.4-1.1
	v-12.3L405.1,424.3z M386.9,433c0.1-2.9,1.7-3.5,2.5-3.5c1.4,0,2.3,1.3,2.3,3.5H386.9z M392.7,433.3c0.1-0.1,0.1-0.1,0.1-0.3
	c0-2-1.1-3.8-3.4-3.8c-2.1,0-3.8,2-3.8,4.5c0,2.6,1.9,4.5,4,4.5c2.3,0,3.1-2.1,3.1-2.6c0-0.1-0.1-0.1-0.2-0.1c-0.1,0-0.2,0-0.2,0.3
	c-0.4,1.4-1.5,2-2.6,2c-0.9,0-1.7-0.5-2.3-1.4c-0.6-1-0.6-2.2-0.6-3.2H392.7z M383.1,431.9c0-1-0.2-2.7-2.6-2.7
	c-1.6,0-2.5,1.3-2.7,2h0v-7.1l-2.4,0.2v0.5c1.2,0,1.4,0.1,1.4,1.1v10.7c0,0.8-0.1,0.9-1.4,0.9v0.5c0.5,0,1.4,0,1.9,0s1.4,0,1.9,0
	v-0.5c-1.3,0-1.4-0.1-1.4-0.9v-3.9c0-1.8,1.1-3.2,2.5-3.2c1.5,0,1.6,1.3,1.6,2.3v4.8c0,0.8-0.1,0.9-1.4,0.9v0.5c0.5,0,1.4,0,1.9,0
	c0.5,0,1.4,0,1.9,0v-0.5c-1.3,0-1.4-0.1-1.4-0.9V431.9z M370.7,429.9h2.8v-0.5h-2.8v-3.7h-0.4c0,2.1-0.7,3.9-2.5,3.9v0.3h1.7v5.6
	c0,0.4,0,2.6,2.3,2.6c1.2,0,1.9-1.2,1.9-2.7v-1.1h-0.4v1.1c0,1.4-0.5,2.3-1.4,2.3c-0.6,0-1.4-0.4-1.4-2.2V429.9z M355.3,433
	c0.1-2.9,1.7-3.5,2.5-3.5c1.4,0,2.3,1.3,2.3,3.5H355.3z M361.1,433.3c0.1-0.1,0.1-0.1,0.1-0.3c0-2-1.1-3.8-3.4-3.8
	c-2.1,0-3.8,2-3.8,4.5c0,2.6,1.9,4.5,4,4.5c2.3,0,3.1-2.1,3.1-2.6c0-0.1-0.1-0.1-0.2-0.1c-0.1,0-0.2,0-0.2,0.3c-0.4,1.4-1.5,2-2.6,2
	c-0.9,0-1.7-0.5-2.3-1.4c-0.6-1-0.6-2.2-0.6-3.2H361.1z M351.5,431.9c0-1-0.2-2.7-2.6-2.7c-1.6,0-2.4,1.2-2.7,2h0v-2l-2.4,0.2v0.5
	c1.2,0,1.4,0.1,1.4,1.1v5.6c0,0.8-0.1,0.9-1.4,0.9v0.5c0.5,0,1.4,0,1.9,0s1.4,0,1.9,0v-0.5c-1.3,0-1.4-0.1-1.4-0.9v-3.9
	c0-1.8,1.1-3.2,2.5-3.2c1.5,0,1.6,1.3,1.6,2.3v4.8c0,0.8-0.1,0.9-1.4,0.9v0.5c0.5,0,1.4,0,1.9,0s1.4,0,1.9,0v-0.5
	c-1.3,0-1.4-0.1-1.4-0.9V431.9z M338.9,429.5v0.5c1.1,0,1.3,0.1,1.3,1.1v5.6c0,0.8-0.1,0.9-1.4,0.9v0.5c0.5,0,1.3,0,1.8,0
	c0.5,0,1.3,0,1.8,0v-0.5c-1.2,0-1.2-0.1-1.2-0.8v-7.4L338.9,429.5z M341.2,425.7c0-0.4-0.4-0.8-0.8-0.8c-0.4,0-0.8,0.4-0.8,0.8
	c0,0.4,0.4,0.8,0.8,0.8C340.9,426.5,341.2,426.1,341.2,425.7z M336.2,431.9c0-1-0.2-2.7-2.6-2.7c-1.4,0-2.3,0.9-2.7,2h0
	c-0.2-1.6-1.4-2-2.6-2c-1.6,0-2.4,1.2-2.7,2h0v-2l-2.4,0.2v0.5c1.2,0,1.4,0.1,1.4,1.1v5.6c0,0.8-0.1,0.9-1.4,0.9v0.5
	c0.5,0,1.4,0,1.9,0s1.4,0,1.9,0v-0.5c-1.3,0-1.4-0.1-1.4-0.9v-3.9c0-1.8,1.1-3.2,2.5-3.2c1.5,0,1.6,1.3,1.6,2.3v4.8
	c0,0.8-0.1,0.9-1.4,0.9v0.5c0.5,0,1.4,0,1.9,0s1.4,0,1.9,0v-0.5c-1.3,0-1.4-0.1-1.4-0.9v-3.9c0-1.8,1.1-3.2,2.5-3.2
	c1.5,0,1.6,1.3,1.6,2.3v4.8c0,0.8-0.1,0.9-1.4,0.9v0.5c0.5,0,1.4,0,1.9,0s1.4,0,1.9,0v-0.5c-1.3,0-1.4-0.1-1.4-0.9V431.9z
	 M318.5,433.3c0-1.9,0.8-3.7,2.3-3.7c0.1,0,0.3,0,0.4,0.1c0,0-0.4,0.1-0.4,0.7c0,0.5,0.4,0.7,0.7,0.7c0.2,0,0.7-0.1,0.7-0.7
	c0-0.6-0.6-1-1.3-1c-1.5,0-2.2,1.5-2.4,2.2h0v-2.2l-2.3,0.2v0.5c1.2,0,1.4,0.1,1.4,1.1v5.6c0,0.8-0.1,0.9-1.4,0.9v0.5
	c0.5,0,1.4,0,1.9,0c0.6,0,1.6,0,2.1,0v-0.5c-1.4,0-1.7,0-1.7-0.9V433.3z M309.2,433c0.1-2.9,1.7-3.5,2.5-3.5c1.4,0,2.3,1.3,2.3,3.5
	H309.2z M315,433.3c0.1-0.1,0.1-0.1,0.1-0.3c0-2-1.1-3.8-3.4-3.8c-2.1,0-3.8,2-3.8,4.5c0,2.6,1.9,4.5,4,4.5c2.3,0,3.1-2.1,3.1-2.6
	c0-0.1-0.1-0.1-0.2-0.1c-0.1,0-0.2,0-0.2,0.3c-0.4,1.4-1.5,2-2.6,2c-0.9,0-1.7-0.5-2.3-1.4c-0.6-1-0.6-2.2-0.6-3.2H315z
	 M303.2,429.9h2.8v-0.5h-2.8v-3.7h-0.4c0,2.1-0.7,3.9-2.5,3.9v0.3h1.7v5.6c0,0.4,0,2.6,2.3,2.6c1.2,0,1.9-1.2,1.9-2.7v-1.1H306v1.1
	c0,1.4-0.5,2.3-1.4,2.3c-0.6,0-1.4-0.4-1.4-2.2V429.9z M293.9,433c0.1-2.9,1.7-3.5,2.5-3.5c1.4,0,2.3,1.3,2.3,3.5H293.9z
	 M299.7,433.3c0.1-0.1,0.1-0.1,0.1-0.3c0-2-1.1-3.8-3.4-3.8c-2.1,0-3.8,2-3.8,4.5c0,2.6,1.9,4.5,4,4.5c2.3,0,3.1-2.1,3.1-2.6
	c0-0.1-0.1-0.1-0.2-0.1c-0.1,0-0.2,0-0.2,0.3c-0.4,1.4-1.5,2-2.6,2c-0.9,0-1.7-0.5-2.3-1.4c-0.6-1-0.6-2.2-0.6-3.2H299.7z
	 M289,435.6c0,0.6-0.4,1.1-0.8,1.5c-0.7,0.6-1.4,0.7-1.7,0.7c-0.6,0-2.7-0.3-2.7-4.1c0-3.9,2.3-4.2,2.9-4.2c0.9,0,1.7,0.5,2.1,1.2
	c0.3,0.4,0.3,0.5,0.3,0.8V435.6z M287.6,424.3v0.5c1.2,0,1.4,0.1,1.4,1.1v4.7c-0.1-0.1-0.9-1.4-2.5-1.4c-2,0-4,1.8-4,4.5
	c0,2.6,1.9,4.5,3.8,4.5c1.7,0,2.6-1.3,2.7-1.5v1.5l2.4-0.2v-0.5c-1.2,0-1.4-0.1-1.4-1.1v-12.3L287.6,424.3z M271.1,437.8
	c-0.9,0-1.7-0.6-2.2-1.3c-0.5-0.9-0.6-2-0.6-2.9c0-0.8,0-1.9,0.6-2.8c0.4-0.7,1.2-1.3,2.2-1.3c0.9,0,1.7,0.5,2.1,1.2
	c0.6,0.9,0.6,2.3,0.6,2.9c0,0.8,0,2-0.6,3C272.7,437.5,271.9,437.8,271.1,437.8z M275.2,433.7c0-2.6-1.9-4.6-4.1-4.6s-4.1,2-4.1,4.6
	c0,2.5,1.9,4.5,4.1,4.5S275.2,436.3,275.2,433.7z M262.4,429.9h2.8v-0.5h-2.8v-3.7H262c0,2.1-0.7,3.9-2.5,3.9v0.3h1.7v5.6
	c0,0.4,0,2.6,2.3,2.6c1.2,0,1.9-1.2,1.9-2.7v-1.1h-0.4v1.1c0,1.4-0.5,2.3-1.4,2.3c-0.6,0-1.4-0.4-1.4-2.2V429.9z M247,433
	c0.1-2.9,1.7-3.5,2.5-3.5c1.4,0,2.3,1.3,2.3,3.5H247z M252.8,433.3c0.1-0.1,0.1-0.1,0.1-0.3c0-2-1.1-3.8-3.4-3.8
	c-2.1,0-3.8,2-3.8,4.5c0,2.6,1.9,4.5,4,4.5c2.3,0,3.1-2.1,3.1-2.6c0-0.1-0.1-0.1-0.2-0.1c-0.1,0-0.2,0-0.2,0.3c-0.4,1.4-1.5,2-2.6,2
	c-0.9,0-1.7-0.5-2.3-1.4c-0.6-1-0.6-2.2-0.6-3.2H252.8z M243.2,424.1l-2.4,0.2v0.5c1.2,0,1.4,0.1,1.4,1.1v10.7
	c0,0.8-0.1,0.9-1.4,0.9v0.5c0.5,0,1.4,0,1.9,0c0.5,0,1.4,0,1.9,0v-0.5c-1.3,0-1.4-0.1-1.4-0.9V424.1z M235.8,429.5v0.5
	c1.2,0,1.4,0.1,1.4,1.1v3.7c0,1.7-0.9,3.2-2.4,3.2c-1.6,0-1.8-1-1.8-2v-6.6l-2.4,0.2v0.5c0.8,0,1.3,0,1.4,0.8v3.9
	c0,1.3,0,2.2,0.5,2.8c0.3,0.3,0.8,0.8,2.2,0.8c1.7,0,2.4-1.4,2.5-1.9h0v1.9l2.4-0.2v-0.5c-1.2,0-1.4-0.1-1.4-1.1v-7.2L235.8,429.5z
	 M225.8,433.3c0-1.9,0.8-3.7,2.3-3.7c0.1,0,0.3,0,0.4,0.1c0,0-0.4,0.1-0.4,0.7c0,0.5,0.4,0.7,0.7,0.7c0.2,0,0.7-0.1,0.7-0.7
	c0-0.6-0.6-1-1.3-1c-1.5,0-2.2,1.5-2.4,2.2h0v-2.2l-2.3,0.2v0.5c1.2,0,1.4,0.1,1.4,1.1v5.6c0,0.8-0.1,0.9-1.4,0.9v0.5
	c0.5,0,1.4,0,1.9,0c0.6,0,1.6,0,2.1,0v-0.5c-1.4,0-1.7,0-1.7-0.9V433.3z M213.6,435.6c0,0.6-0.4,1.1-0.8,1.5
	c-0.7,0.6-1.4,0.7-1.7,0.7c-0.6,0-2.7-0.3-2.7-4.1c0-3.9,2.3-4.2,2.9-4.2c0.9,0,1.7,0.5,2.1,1.2c0.3,0.4,0.3,0.5,0.3,0.8V435.6z
	 M212.3,424.3v0.5c1.2,0,1.4,0.1,1.4,1.1v4.7c-0.1-0.1-0.9-1.4-2.5-1.4c-2,0-4,1.8-4,4.5c0,2.6,1.9,4.5,3.8,4.5
	c1.7,0,2.6-1.3,2.7-1.5v1.5l2.4-0.2v-0.5c-1.2,0-1.4-0.1-1.4-1.1v-12.3L212.3,424.3z M204.5,431.9c0-1-0.2-2.7-2.6-2.7
	c-1.6,0-2.4,1.2-2.7,2h0v-2l-2.4,0.2v0.5c1.2,0,1.4,0.1,1.4,1.1v5.6c0,0.8-0.1,0.9-1.4,0.9v0.5c0.5,0,1.4,0,1.9,0s1.4,0,1.9,0v-0.5
	c-1.3,0-1.4-0.1-1.4-0.9v-3.9c0-1.8,1.1-3.2,2.5-3.2c1.5,0,1.6,1.3,1.6,2.3v4.8c0,0.8-0.1,0.9-1.4,0.9v0.5c0.5,0,1.4,0,1.9,0
	s1.4,0,1.9,0v-0.5c-1.3,0-1.4-0.1-1.4-0.9V431.9z M193.1,435.2c0,1.7-1.2,2.6-2.4,2.6c-1,0-1.8-0.7-1.8-1.7c0-0.6,0.3-1.7,1.4-2.3
	c1-0.5,2.1-0.6,2.7-0.7V435.2z M194.2,432.8c0-1.3,0-2-0.8-2.8c-0.7-0.7-1.6-0.9-2.3-0.9c-1.6,0-2.7,1.2-2.7,2.6
	c0,0.7,0.6,0.8,0.7,0.8c0.3,0,0.7-0.2,0.7-0.7c0-0.5-0.4-0.7-0.7-0.7l-0.2,0c0.4-1.3,1.5-1.6,2.2-1.6c1,0,2.1,0.9,2.1,2.6v0.9
	c-1.2,0-2.6,0.2-3.7,0.8c-1.3,0.7-1.6,1.7-1.6,2.5c0,1.5,1.8,2,2.9,2c1.1,0,2.1-0.6,2.6-1.8c0,0.9,0.6,1.7,1.5,1.7
	c0.4,0,1.5-0.3,1.5-1.9v-1.1h-0.4v1.1c0,1.2-0.5,1.4-0.8,1.4c-0.8,0-0.8-1-0.8-1.9V432.8z M185,431.9c0-1-0.2-2.7-2.6-2.7
	c-1.6,0-2.5,1.3-2.7,2h0v-7.1l-2.4,0.2v0.5c1.2,0,1.4,0.1,1.4,1.1v10.7c0,0.8-0.1,0.9-1.4,0.9v0.5c0.5,0,1.4,0,1.9,0
	c0.5,0,1.4,0,1.9,0v-0.5c-1.3,0-1.4-0.1-1.4-0.9v-3.9c0-1.8,1.1-3.2,2.5-3.2c1.5,0,1.6,1.3,1.6,2.3v4.8c0,0.8-0.1,0.9-1.4,0.9v0.5
	c0.5,0,1.4,0,1.9,0c0.5,0,1.4,0,1.9,0v-0.5c-1.3,0-1.4-0.1-1.4-0.9V431.9z M166.5,429.9h2.8v-0.5h-2.8v-3.7h-0.4
	c0,2.1-0.7,3.9-2.5,3.9v0.3h1.7v5.6c0,0.4,0,2.6,2.3,2.6c1.2,0,1.9-1.2,1.9-2.7v-1.1h-0.4v1.1c0,1.4-0.5,2.3-1.4,2.3
	c-0.6,0-1.4-0.4-1.4-2.2V429.9z M162.1,431.9c0-1-0.2-2.7-2.6-2.7c-1.6,0-2.5,1.3-2.7,2h0v-7.1l-2.4,0.2v0.5c1.2,0,1.4,0.1,1.4,1.1
	v10.7c0,0.8-0.1,0.9-1.4,0.9v0.5c0.5,0,1.4,0,1.9,0s1.4,0,1.9,0v-0.5c-1.3,0-1.4-0.1-1.4-0.9v-3.9c0-1.8,1.1-3.2,2.5-3.2
	c1.5,0,1.6,1.3,1.6,2.3v4.8c0,0.8-0.1,0.9-1.4,0.9v0.5c0.5,0,1.4,0,1.9,0s1.4,0,1.9,0v-0.5c-1.3,0-1.4-0.1-1.4-0.9V431.9z
	 M149.1,441.8c-2,0-3.4-1.1-3.4-2.2c0-0.6,0.3-1.2,0.8-1.5c0.5-0.3,0.7-0.3,2.1-0.3c1.6,0,3.9,0,3.9,1.9
	C152.5,440.7,151.1,441.8,149.1,441.8z M148.6,434.7c-1.8,0-1.8-2.2-1.8-2.6s0-2.6,1.8-2.6c1.8,0,1.8,2.2,1.8,2.6
	S150.4,434.7,148.6,434.7z M146.8,434.4c0.4,0.3,1,0.6,1.8,0.6c1.6,0,3-1.2,3-2.9c0-0.5-0.2-1.3-0.8-1.9c0.6-0.6,1.4-0.8,1.8-0.8
	l0.3,0.1c-0.1,0-0.3,0.1-0.3,0.4c0,0.3,0.2,0.4,0.4,0.4c0.3,0,0.5-0.2,0.5-0.5c0-0.4-0.3-0.8-0.9-0.8c-0.8,0-1.5,0.4-2.1,0.9
	c-0.6-0.5-1.3-0.7-2-0.7c-1.6,0-3,1.2-3,2.9c0,1.1,0.7,1.9,0.9,2.1c-0.6,0.7-0.6,1.5-0.6,1.6c0,0.5,0.2,1.3,0.9,1.7
	c-1,0.3-1.9,1.1-1.9,2.1c0,1.4,1.9,2.5,4.2,2.5c2.2,0,4.2-1,4.2-2.5c0-2.7-3-2.7-4.5-2.7c-0.5,0-1.3,0-1.4,0c-0.6-0.1-1-0.7-1-1.4
	C146.4,435.3,146.4,434.9,146.8,434.4z M140.3,429.5v0.5c1.1,0,1.3,0.1,1.3,1.1v5.6c0,0.8-0.1,0.9-1.4,0.9v0.5c0.5,0,1.3,0,1.8,0
	c0.5,0,1.3,0,1.8,0v-0.5c-1.2,0-1.2-0.1-1.2-0.8v-7.4L140.3,429.5z M142.6,425.7c0-0.4-0.4-0.8-0.8-0.8c-0.4,0-0.8,0.4-0.8,0.8
	c0,0.4,0.4,0.8,0.8,0.8C142.2,426.5,142.6,426.1,142.6,425.7z M132.1,431h-2.3v-5.4c0-0.7,0-0.8,0.8-0.8h1.5c1.7,0,3.6,0.6,3.6,3.1
	C135.7,430.5,133.6,431,132.1,431z M133.7,431.2c1.9-0.4,3.5-1.7,3.5-3.3c0-1.9-2.1-3.6-4.9-3.6h-5.4v0.5c1.4,0,1.6,0,1.6,0.9v10.9
	c0,0.9-0.2,0.9-1.6,0.9v0.5c0.6,0,1.6,0,2.3,0s1.7,0,2.3,0v-0.5c-1.4,0-1.6,0-1.6-0.9v-5.3h2.4c1.1,0,1.8,0.5,2.1,0.7
	c0.8,0.8,0.8,1.3,0.8,2.7c0,1.3,0,2,0.6,2.7c0.8,0.8,1.8,0.9,2.2,0.9c1.5,0,1.7-1.7,1.7-2c0-0.1,0-0.3-0.2-0.3
	c-0.2,0-0.2,0.1-0.2,0.2c-0.1,1.3-0.7,1.7-1.3,1.7c-1.1,0-1.2-1.3-1.3-2.5c-0.1-0.4-0.1-0.7-0.1-1.2
	C136.3,433.4,136.1,431.9,133.7,431.2z"/>
<path d="M465.5,462.8c0-0.5-0.4-0.8-0.8-0.8c-0.4,0-0.8,0.3-0.8,0.8c0,0.5,0.4,0.8,0.8,0.8C465.1,463.6,465.5,463.3,465.5,462.8z
	 M455,457.3c0-0.3,0-0.7,0.8-1.4c0.1-0.1,0.8-0.7,1.8-0.7c1.5,0,2.7,1.8,2.7,4.1c0,2.3-1.3,4.2-2.9,4.2c-0.7,0-1.5-0.3-2.1-1.3
	c-0.3-0.4-0.3-0.6-0.3-0.9V457.3z M456.4,467c-1.3,0-1.4-0.1-1.4-0.9v-3.8c0.6,0.8,1.4,1.4,2.5,1.4c2,0,4-1.8,4-4.5
	c0-2.5-1.7-4.5-3.8-4.5c-1.2,0-2.2,0.7-2.8,1.5v-1.5l-2.4,0.2v0.5c1.2,0,1.4,0.1,1.4,1.1v9.5c0,0.8-0.1,0.9-1.4,0.9v0.5
	c0.5,0,1.4,0,1.9,0s1.4,0,1.9,0V467z M447.6,455v0.5c1.2,0,1.4,0.1,1.4,1.1v3.7c0,1.7-0.9,3.2-2.4,3.2c-1.6,0-1.8-1-1.8-2v-6.6
	l-2.4,0.2v0.5c0.8,0,1.3,0,1.4,0.8v3.9c0,1.3,0,2.2,0.5,2.8c0.3,0.3,0.8,0.8,2.2,0.8c1.7,0,2.4-1.4,2.5-1.9h0v1.9l2.4-0.2v-0.5
	c-1.2,0-1.4-0.1-1.4-1.1v-7.2L447.6,455z M434.6,455.1c0-0.4,0-0.4-0.1-0.4c-0.1,0-0.1,0-0.3,0.3l-0.3,0.4c-0.6-0.7-1.5-0.7-1.9-0.7
	c-2.2,0-3,1.2-3,2.3c0,1.8,2,2.2,2.6,2.4c1.3,0.3,1.7,0.3,2.1,0.7c0.3,0.2,0.7,0.7,0.7,1.4c0,0.8-0.5,1.9-2.3,1.9
	c-1.7,0-2.4-1.3-2.7-3.1c-0.1-0.3-0.1-0.3-0.2-0.3s-0.2,0-0.2,0.4v2.9c0,0.4,0,0.4,0.1,0.4c0.1,0,0.1,0,0.2-0.2
	c0.1-0.2,0.4-0.7,0.5-0.9c0.4,0.5,1.1,1.1,2.2,1.1c2,0,3.1-1.1,3.1-2.7c0-1-0.5-1.6-0.8-1.8c-0.6-0.6-1.3-0.8-2.1-0.9
	c-1.1-0.2-2.5-0.5-2.5-1.7c0-0.5,0.3-1.6,2.3-1.6c2.1,0,2.3,2,2.3,2.7l0.2,0.1c0.2,0,0.2-0.1,0.2-0.4V455.1z M421.2,457.3
	c0-0.4,0-0.4,0.3-0.8c0.8-1.2,1.9-1.3,2.3-1.3c0.6,0,2.7,0.3,2.7,4.1c0,4-2.4,4.2-2.9,4.2c-0.6,0-1.5-0.2-2.2-1.4
	c-0.2-0.4-0.2-0.4-0.2-0.8V457.3z M421.2,449.7l-2.4,0.2v0.5c1.2,0,1.4,0.1,1.4,1.1v12.1h0.4l0.6-1.4c0.6,0.9,1.4,1.6,2.6,1.6
	c2,0,4-1.8,4-4.5c0-2.6-1.8-4.5-3.8-4.5c-1.2,0-2.1,0.7-2.7,1.4V449.7z M416.7,457.5c0-1-0.2-2.7-2.6-2.7c-1.4,0-2.3,0.9-2.7,2h0
	c-0.2-1.6-1.4-2-2.6-2c-1.6,0-2.4,1.2-2.7,2h0v-2l-2.4,0.2v0.5c1.2,0,1.4,0.1,1.4,1.1v5.6c0,0.8-0.1,0.9-1.4,0.9v0.5
	c0.5,0,1.4,0,1.9,0s1.4,0,1.9,0v-0.5c-1.3,0-1.4-0.1-1.4-0.9v-3.9c0-1.8,1.1-3.2,2.5-3.2c1.5,0,1.6,1.3,1.6,2.3v4.8
	c0,0.8-0.1,0.9-1.4,0.9v0.5c0.5,0,1.4,0,1.9,0c0.5,0,1.4,0,1.9,0v-0.5c-1.3,0-1.4-0.1-1.4-0.9v-3.9c0-1.8,1.1-3.2,2.5-3.2
	c1.5,0,1.6,1.3,1.6,2.3v4.8c0,0.8-0.1,0.9-1.4,0.9v0.5c0.5,0,1.4,0,1.9,0s1.4,0,1.9,0v-0.5c-1.3,0-1.4-0.1-1.4-0.9V457.5z
	 M398.8,455v0.5c1.2,0,1.4,0.1,1.4,1.1v3.7c0,1.7-0.9,3.2-2.4,3.2c-1.6,0-1.8-1-1.8-2v-6.6l-2.4,0.2v0.5c0.8,0,1.3,0,1.4,0.8v3.9
	c0,1.3,0,2.2,0.5,2.8c0.3,0.3,0.8,0.8,2.2,0.8c1.7,0,2.4-1.4,2.5-1.9h0v1.9l2.4-0.2v-0.5c-1.2,0-1.4-0.1-1.4-1.1v-7.2L398.8,455z
	 M391.5,457.5c0-1-0.2-2.7-2.6-2.7c-1.6,0-2.5,1.3-2.7,2h0v-7.1l-2.4,0.2v0.5c1.2,0,1.4,0.1,1.4,1.1v10.7c0,0.8-0.1,0.9-1.4,0.9v0.5
	c0.5,0,1.4,0,1.9,0s1.4,0,1.9,0v-0.5c-1.3,0-1.4-0.1-1.4-0.9v-3.9c0-1.8,1.1-3.2,2.5-3.2c1.5,0,1.6,1.3,1.6,2.3v4.8
	c0,0.8-0.1,0.9-1.4,0.9v0.5c0.5,0,1.4,0,1.9,0s1.4,0,1.9,0v-0.5c-1.3,0-1.4-0.1-1.4-0.9V457.5z M379,455.5h2.8V455H379v-3.7h-0.4
	c0,2.1-0.7,3.9-2.5,3.9v0.3h1.7v5.6c0,0.4,0,2.6,2.3,2.6c1.2,0,1.9-1.2,1.9-2.7V460h-0.4v1.1c0,1.4-0.5,2.3-1.4,2.3
	c-0.6,0-1.4-0.4-1.4-2.2V455.5z M366.9,460.8c0,1.7-1.2,2.6-2.4,2.6c-1,0-1.8-0.7-1.8-1.7c0-0.6,0.3-1.7,1.4-2.3
	c1-0.5,2.1-0.6,2.7-0.7V460.8z M368,458.4c0-1.3,0-2-0.8-2.8c-0.7-0.7-1.6-0.9-2.3-0.9c-1.6,0-2.7,1.2-2.7,2.6
	c0,0.7,0.6,0.8,0.7,0.8c0.3,0,0.7-0.2,0.7-0.7c0-0.5-0.4-0.7-0.7-0.7l-0.2,0c0.4-1.3,1.5-1.6,2.2-1.6c1,0,2.1,0.9,2.1,2.6v0.9
	c-1.2,0-2.6,0.2-3.7,0.8c-1.3,0.7-1.6,1.7-1.6,2.5c0,1.5,1.8,2,2.9,2c1.1,0,2.1-0.6,2.6-1.8c0,0.9,0.6,1.7,1.5,1.7
	c0.4,0,1.5-0.3,1.5-1.9v-1.1h-0.4v1.1c0,1.2-0.5,1.4-0.8,1.4c-0.8,0-0.8-1-0.8-1.9V458.4z M350.6,455.5h2.8V455h-2.8v-3.7h-0.4
	c0,2.1-0.7,3.9-2.5,3.9v0.3h1.7v5.6c0,0.4,0,2.6,2.3,2.6c1.2,0,1.9-1.2,1.9-2.7V460h-0.4v1.1c0,1.4-0.5,2.3-1.4,2.3
	c-0.6,0-1.4-0.4-1.4-2.2V455.5z M346.5,455.1c0-0.4,0-0.4-0.1-0.4c-0.1,0-0.1,0-0.3,0.3l-0.3,0.4c-0.6-0.7-1.5-0.7-1.9-0.7
	c-2.2,0-3,1.2-3,2.3c0,1.8,2,2.2,2.6,2.4c1.3,0.3,1.7,0.3,2.1,0.7c0.3,0.2,0.7,0.7,0.7,1.4c0,0.8-0.5,1.9-2.3,1.9
	c-1.7,0-2.4-1.3-2.7-3.1c-0.1-0.3-0.1-0.3-0.2-0.3s-0.2,0-0.2,0.4v2.9c0,0.4,0,0.4,0.1,0.4c0.1,0,0.1,0,0.2-0.2
	c0.1-0.2,0.4-0.7,0.5-0.9c0.4,0.5,1.1,1.1,2.2,1.1c2,0,3.1-1.1,3.1-2.7c0-1-0.5-1.6-0.8-1.8c-0.6-0.6-1.3-0.8-2.1-0.9
	c-1.1-0.2-2.5-0.5-2.5-1.7c0-0.5,0.3-1.6,2.3-1.6c2.1,0,2.3,2,2.3,2.7l0.2,0.1c0.2,0,0.2-0.1,0.2-0.4V455.1z M336,455v0.5
	c1.2,0,1.4,0.1,1.4,1.1v3.7c0,1.7-0.9,3.2-2.4,3.2c-1.6,0-1.8-1-1.8-2v-6.6l-2.4,0.2v0.5c0.8,0,1.3,0,1.4,0.8v3.9
	c0,1.3,0,2.2,0.5,2.8c0.3,0.3,0.8,0.8,2.2,0.8c1.7,0,2.4-1.4,2.5-1.9h0v1.9l2.4-0.2v-0.5c-1.2,0-1.4-0.1-1.4-1.1v-7.2L336,455z
	 M325.7,455v0.5c1.3,0,1.5,0.1,1.5,1.1v8.1c0,1-0.2,2.6-1.4,2.6c-0.1,0-0.7,0-1.1-0.3c0.1,0,0.6-0.2,0.6-0.7c0-0.4-0.3-0.7-0.7-0.7
	c-0.4,0-0.7,0.3-0.7,0.7c0,0.8,0.9,1.3,1.9,1.3c1.4,0,2.4-1.3,2.4-3v-9.9L325.7,455z M328.2,451.2c0-0.4-0.4-0.8-0.8-0.8
	c-0.4,0-0.8,0.4-0.8,0.8c0,0.4,0.4,0.8,0.8,0.8C327.8,452.1,328.2,451.7,328.2,451.2z M314.3,458.9c0-1.9,0.8-3.7,2.3-3.7
	c0.1,0,0.3,0,0.4,0.1c0,0-0.4,0.1-0.4,0.7c0,0.5,0.4,0.7,0.7,0.7c0.2,0,0.7-0.1,0.7-0.7c0-0.6-0.6-1-1.3-1c-1.5,0-2.2,1.5-2.4,2.2h0
	v-2.2L312,455v0.5c1.2,0,1.4,0.1,1.4,1.1v5.6c0,0.8-0.1,0.9-1.4,0.9v0.5c0.5,0,1.4,0,1.9,0c0.6,0,1.6,0,2.1,0v-0.5
	c-1.4,0-1.7,0-1.7-0.9V458.9z M304.1,463.6c-2.3,0-4.8-2.3-4.8-7.1c0-4.7,2.7-6.6,4.8-6.6c2.1,0,4.8,1.9,4.8,6.6
	C308.9,461.4,306.3,463.6,304.1,463.6z M310.4,456.8c0-4.1-3-7.2-6.3-7.2c-3.4,0-6.3,3.1-6.3,7.2s2.9,7.2,6.3,7.2
	C307.5,463.9,310.4,460.8,310.4,456.8z M287,462.8c0-0.5-0.4-0.8-0.8-0.8c-0.4,0-0.8,0.3-0.8,0.8c0,0.5,0.4,0.8,0.8,0.8
	C286.6,463.6,287,463.3,287,462.8z M279.6,458.9c0-1.9,0.8-3.7,2.3-3.7c0.1,0,0.3,0,0.4,0.1c0,0-0.4,0.1-0.4,0.7
	c0,0.5,0.4,0.7,0.7,0.7c0.2,0,0.7-0.1,0.7-0.7c0-0.6-0.6-1-1.3-1c-1.5,0-2.2,1.5-2.4,2.2h0v-2.2l-2.3,0.2v0.5c1.2,0,1.4,0.1,1.4,1.1
	v5.6c0,0.8-0.1,0.9-1.4,0.9v0.5c0.5,0,1.4,0,1.9,0c0.6,0,1.6,0,2.1,0v-0.5c-1.4,0-1.7,0-1.7-0.9V458.9z M272,463.4
	c-0.9,0-1.7-0.6-2.2-1.3c-0.5-0.9-0.6-2-0.6-2.9c0-0.8,0-1.9,0.6-2.8c0.4-0.7,1.2-1.3,2.2-1.3c0.9,0,1.7,0.5,2.1,1.2
	c0.6,0.9,0.6,2.3,0.6,2.9c0,0.8,0,2-0.6,3C273.6,463,272.7,463.4,272,463.4z M276,459.3c0-2.6-1.9-4.6-4.1-4.6s-4.1,2-4.1,4.6
	c0,2.5,1.9,4.5,4.1,4.5S276,461.9,276,459.3z M263.3,455.5h2.8V455h-2.8v-3.7h-0.4c0,2.1-0.7,3.9-2.5,3.9v0.3h1.7v5.6
	c0,0.4,0,2.6,2.3,2.6c1.2,0,1.9-1.2,1.9-2.7V460H266v1.1c0,1.4-0.5,2.3-1.4,2.3c-0.6,0-1.4-0.4-1.4-2.2V455.5z M259.1,456.6
	c-0.4,0-0.9,0-0.9,0.7c0,0.6,0.5,0.7,0.7,0.7c0.1,0,0.7-0.1,0.7-0.8c0-1.4-1.4-2.5-2.9-2.5c-2.1,0-3.9,2-3.9,4.5
	c0,2.7,1.9,4.5,3.9,4.5c2.5,0,3.1-2.3,3.1-2.5c0-0.1,0-0.1-0.2-0.1c-0.1,0-0.2,0-0.2,0.3c-0.5,1.6-1.7,2-2.5,2
	c-1.3,0-2.8-1.2-2.8-4.2c0-3.1,1.5-4.2,2.7-4.2C257.5,455.1,258.6,455.5,259.1,456.6z M245.8,458.6c0.1-2.9,1.7-3.5,2.5-3.5
	c1.4,0,2.3,1.3,2.3,3.5H245.8z M251.6,458.9c0.1-0.1,0.1-0.1,0.1-0.3c0-2-1.1-3.8-3.4-3.8c-2.1,0-3.8,2-3.8,4.5c0,2.6,1.9,4.5,4,4.5
	c2.3,0,3.1-2.1,3.1-2.6c0-0.1-0.1-0.1-0.2-0.1c-0.1,0-0.2,0-0.2,0.3c-0.4,1.4-1.5,2-2.6,2c-0.9,0-1.7-0.5-2.3-1.4
	c-0.6-1-0.6-2.2-0.6-3.2H251.6z M242.5,456.8c0.2-0.4,0.5-1.2,1.7-1.3V455c-0.4,0-0.9,0-1.3,0c-0.4,0-1.1,0-1.5,0v0.5
	c0.5,0,0.8,0.3,0.8,0.8c0,0.2,0,0.2-0.1,0.5l-2.2,5.6l-2.4-6c-0.1-0.3-0.1-0.3-0.1-0.4c0-0.5,0.7-0.5,1-0.5V455c-0.5,0-1.4,0-1.9,0
	c-0.5,0-1.2,0-1.6,0v0.5c0.8,0,1.2,0,1.4,0.6l2.9,7.3c0.1,0.3,0.1,0.3,0.3,0.3s0.2,0,0.3-0.3L242.5,456.8z M226.7,457.5
	c0-1-0.2-2.7-2.6-2.7c-1.6,0-2.4,1.2-2.7,2h0v-2L219,455v0.5c1.2,0,1.4,0.1,1.4,1.1v5.6c0,0.8-0.1,0.9-1.4,0.9v0.5
	c0.5,0,1.4,0,1.9,0s1.4,0,1.9,0v-0.5c-1.3,0-1.4-0.1-1.4-0.9v-3.9c0-1.8,1.1-3.2,2.5-3.2c1.5,0,1.6,1.3,1.6,2.3v4.8
	c0,0.8-0.1,0.9-1.4,0.9v0.5c0.5,0,1.4,0,1.9,0s1.4,0,1.9,0v-0.5c-1.3,0-1.4-0.1-1.4-0.9V457.5z M213.7,463.4c-0.9,0-1.7-0.6-2.2-1.3
	c-0.5-0.9-0.6-2-0.6-2.9c0-0.8,0-1.9,0.6-2.8c0.4-0.7,1.2-1.3,2.2-1.3c0.9,0,1.7,0.5,2.1,1.2c0.6,0.9,0.6,2.3,0.6,2.9
	c0,0.8,0,2-0.6,3C215.4,463,214.5,463.4,213.7,463.4z M217.8,459.3c0-2.6-1.9-4.6-4.1-4.6s-4.1,2-4.1,4.6c0,2.5,1.9,4.5,4.1,4.5
	S217.8,461.9,217.8,459.3z M204.9,455v0.5c1.1,0,1.3,0.1,1.3,1.1v5.6c0,0.8-0.1,0.9-1.4,0.9v0.5c0.5,0,1.3,0,1.8,0
	c0.5,0,1.3,0,1.8,0v-0.5c-1.2,0-1.2-0.1-1.2-0.8v-7.4L204.9,455z M207.2,451.2c0-0.4-0.4-0.8-0.8-0.8c-0.4,0-0.8,0.4-0.8,0.8
	c0,0.4,0.4,0.8,0.8,0.8C206.8,452.1,207.2,451.7,207.2,451.2z M200,455.5h2.8V455H200v-3.7h-0.4c0,2.1-0.7,3.9-2.5,3.9v0.3h1.7v5.6
	c0,0.4,0,2.6,2.3,2.6c1.2,0,1.9-1.2,1.9-2.7V460h-0.4v1.1c0,1.4-0.5,2.3-1.4,2.3c-0.6,0-1.4-0.4-1.4-2.2V455.5z M194,460.8
	c0,1.7-1.2,2.6-2.4,2.6c-1,0-1.8-0.7-1.8-1.7c0-0.6,0.3-1.7,1.4-2.3c1-0.5,2.1-0.6,2.7-0.7V460.8z M195,458.4c0-1.3,0-2-0.8-2.8
	c-0.7-0.7-1.6-0.9-2.3-0.9c-1.6,0-2.7,1.2-2.7,2.6c0,0.7,0.6,0.8,0.7,0.8c0.3,0,0.7-0.2,0.7-0.7c0-0.5-0.4-0.7-0.7-0.7l-0.2,0
	c0.4-1.3,1.5-1.6,2.2-1.6c1,0,2.1,0.9,2.1,2.6v0.9c-1.2,0-2.6,0.2-3.7,0.8c-1.3,0.7-1.6,1.7-1.6,2.5c0,1.5,1.8,2,2.9,2
	c1.1,0,2.1-0.6,2.6-1.8c0,0.9,0.6,1.7,1.5,1.7c0.4,0,1.5-0.3,1.5-1.9v-1.1h-0.4v1.1c0,1.2-0.5,1.4-0.8,1.4c-0.8,0-0.8-1-0.8-1.9
	V458.4z M183.7,455.5h2.8V455h-2.8v-3.7h-0.4c0,2.1-0.7,3.9-2.5,3.9v0.3h1.7v5.6c0,0.4,0,2.6,2.3,2.6c1.2,0,1.9-1.2,1.9-2.7V460
	h-0.4v1.1c0,1.4-0.5,2.3-1.4,2.3c-0.6,0-1.4-0.4-1.4-2.2V455.5z M176.1,463.4c-0.9,0-1.7-0.6-2.2-1.3c-0.5-0.9-0.6-2-0.6-2.9
	c0-0.8,0-1.9,0.6-2.8c0.4-0.7,1.2-1.3,2.2-1.3c0.9,0,1.7,0.5,2.1,1.2c0.6,0.9,0.6,2.3,0.6,2.9c0,0.8,0,2-0.6,3
	C177.7,463,176.8,463.4,176.1,463.4z M180.1,459.3c0-2.6-1.9-4.6-4.1-4.6c-2.2,0-4.1,2-4.1,4.6c0,2.5,1.9,4.5,4.1,4.5
	C178.2,463.8,180.1,461.9,180.1,459.3z M167.3,458.9c0-1.9,0.8-3.7,2.3-3.7c0.1,0,0.3,0,0.4,0.1c0,0-0.4,0.1-0.4,0.7
	c0,0.5,0.4,0.7,0.7,0.7c0.2,0,0.7-0.1,0.7-0.7c0-0.6-0.6-1-1.3-1c-1.5,0-2.2,1.5-2.4,2.2h0v-2.2L165,455v0.5c1.2,0,1.4,0.1,1.4,1.1
	v5.6c0,0.8-0.1,0.9-1.4,0.9v0.5c0.5,0,1.4,0,1.9,0c0.6,0,1.6,0,2.1,0v-0.5c-1.4,0-1.7,0-1.7-0.9V458.9z M155.2,460.8
	c0,1.7-1.2,2.6-2.4,2.6c-1,0-1.8-0.7-1.8-1.7c0-0.6,0.3-1.7,1.4-2.3c1-0.5,2.1-0.6,2.7-0.7V460.8z M156.3,458.4c0-1.3,0-2-0.8-2.8
	c-0.7-0.7-1.6-0.9-2.3-0.9c-1.6,0-2.7,1.2-2.7,2.6c0,0.7,0.6,0.8,0.7,0.8c0.3,0,0.7-0.2,0.7-0.7c0-0.5-0.4-0.7-0.7-0.7l-0.2,0
	c0.4-1.3,1.5-1.6,2.2-1.6c1,0,2.1,0.9,2.1,2.6v0.9c-1.2,0-2.6,0.2-3.7,0.8c-1.3,0.7-1.6,1.7-1.6,2.5c0,1.5,1.8,2,2.9,2
	c1.1,0,2.1-0.6,2.6-1.8c0,0.9,0.6,1.7,1.5,1.7c0.4,0,1.5-0.3,1.5-1.9v-1.1h-0.4v1.1c0,1.2-0.5,1.4-0.8,1.4c-0.8,0-0.8-1-0.8-1.9
	V458.4z M140.5,455.5h2.3V455h-2.3v-2.4c0-1.7,0.8-2.7,1.7-2.7c0.3,0,0.6,0.1,0.8,0.2c-0.2,0-0.6,0.2-0.6,0.7c0,0.5,0.4,0.7,0.7,0.7
	s0.7-0.2,0.7-0.7c0-0.8-0.7-1.2-1.5-1.2c-1.1,0-2.7,0.9-2.7,3.1v2.4h-1.6v0.5h1.6v6.7c0,0.8-0.1,0.9-1.4,0.9v0.5c0.5,0,1.4,0,1.9,0
	c0.6,0,1.6,0,2.1,0v-0.5c-1.4,0-1.7,0-1.7-0.9V455.5z M132.8,463.4c-0.9,0-1.7-0.6-2.2-1.3c-0.5-0.9-0.6-2-0.6-2.9
	c0-0.8,0-1.9,0.6-2.8c0.4-0.7,1.2-1.3,2.2-1.3c0.9,0,1.7,0.5,2.1,1.2c0.6,0.9,0.6,2.3,0.6,2.9c0,0.8,0,2-0.6,3
	C134.5,463,133.6,463.4,132.8,463.4z M136.9,459.3c0-2.6-1.9-4.6-4.1-4.6c-2.2,0-4.1,2-4.1,4.6c0,2.5,1.9,4.5,4.1,4.5
	C135,463.8,136.9,461.9,136.9,459.3z"/>
</svg>
