<?xml version="1.0" encoding="UTF-8" standalone="no"?>
<svg
   xmlns:dc="http://purl.org/dc/elements/1.1/"
   xmlns:cc="http://creativecommons.org/ns#"
   xmlns:rdf="http://www.w3.org/1999/02/22-rdf-syntax-ns#"
   xmlns:svg="http://www.w3.org/2000/svg"
   xmlns="http://www.w3.org/2000/svg"
   id="svg8"
   version="1.1"
   viewBox="0 0 169.33333 82.890445"
   height="313.28671"
   width="640">
  <defs
     id="defs2">
    <clipPath
       id="clip2">
      <path
         id="path18"
         d="M 0,0 V 322 H 644 V 0 Z" />
    </clipPath>
    <clipPath
       id="clip3">
      <path
         id="path29"
         d="M 0,0 V 322 H 644 V 0 Z" />
    </clipPath>
    <clipPath
       id="clip4">
      <path
         id="path40"
         d="M 0,0 V 322 H 644 V 0 Z" />
    </clipPath>
    <clipPath
       id="clip5">
      <path
         id="path51"
         d="M 0,0 V 322 H 644 V 0 Z" />
    </clipPath>
    <clipPath
       id="clip6">
      <path
         id="path62"
         d="M 0,0 V 322 H 644 V 0 Z" />
    </clipPath>
    <clipPath
       id="clip7">
      <path
         id="path73"
         d="M 0,0 V 322 H 644 V 0 Z" />
    </clipPath>
    <clipPath
       id="clip8">
      <path
         id="path84"
         d="M 0,0 V 322 H 644 V 0 Z" />
    </clipPath>
    <clipPath
       id="clip9">
      <path
         id="path95"
         d="M 0,0 V 322 H 644 V 0 Z" />
    </clipPath>
    <clipPath
       id="clip13">
      <path
         id="path139"
         d="M 0,0 V 322 H 644 V 0 Z" />
    </clipPath>
    <clipPath
       id="clip14">
      <path
         id="path150"
         d="M 0,0 V 322 H 644 V 0 Z" />
    </clipPath>
    <clipPath
       id="clip15">
      <path
         id="path161"
         d="M 0,0 V 322 H 644 V 0 Z" />
    </clipPath>
    <clipPath
       id="clip16">
      <path
         id="path172"
         d="M 0,0 V 322 H 644 V 0 Z" />
    </clipPath>
    <clipPath
       id="clip17">
      <path
         id="path183"
         d="M 0,0 V 322 H 644 V 0 Z" />
    </clipPath>
    <clipPath
       id="clip18">
      <path
         id="path194"
         d="M 0,0 V 322 H 644 V 0 Z" />
    </clipPath>
    <clipPath
       id="clip19">
      <path
         id="path205"
         d="M 0,0 V 322 H 644 V 0 Z" />
    </clipPath>
    <clipPath
       id="clip20">
      <path
         id="path216"
         d="M 0,0 V 322 H 644 V 0 Z" />
    </clipPath>
    <clipPath
       id="clip21">
      <path
         id="path227"
         d="M 0,0 V 322 H 644 V 0 Z" />
    </clipPath>
    <clipPath
       id="clip22">
      <path
         id="path238"
         d="M 0,0 V 322 H 644 V 0 Z" />
    </clipPath>
    <clipPath
       id="clip23">
      <path
         id="path249"
         d="M 0,0 V 322 H 644 V 0 Z" />
    </clipPath>
    <clipPath
       id="clip24">
      <path
         id="path260"
         d="M 0,0 V 322 H 644 V 0 Z" />
    </clipPath>
    <clipPath
       id="clip25">
      <path
         id="path271"
         d="M 0,0 V 322 H 644 V 0 Z" />
    </clipPath>
    <clipPath
       id="clip26">
      <path
         id="path282"
         d="M 0,0 V 322 H 644 V 0 Z" />
    </clipPath>
    <clipPath
       id="clip27">
      <path
         id="path293"
         d="M 0,0 V 322 H 644 V 0 Z" />
    </clipPath>
    <clipPath
       id="clip28">
      <path
         id="path304"
         d="M 0,0 V 322 H 644 V 0 Z" />
    </clipPath>
    <clipPath
       id="clip29">
      <path
         id="path315"
         d="M 0,0 V 322 H 644 V 0 Z" />
    </clipPath>
    <clipPath
       id="clip30">
      <path
         id="path326"
         d="M 0,0 V 322 H 644 V 0 Z" />
    </clipPath>
    <clipPath
       id="clip31">
      <path
         id="path337"
         d="M 0,0 V 322 H 644 V 0 Z" />
    </clipPath>
    <clipPath
       id="clip36">
      <path
         id="path392"
         d="M 0,0 V 322 H 644 V 0 Z" />
    </clipPath>
    <clipPath
       id="clip37">
      <path
         id="path403"
         d="M 0,0 V 322 H 644 V 0 Z" />
    </clipPath>
    <clipPath
       id="clip38">
      <path
         id="path414"
         d="M 0,0 V 322 H 644 V 0 Z" />
    </clipPath>
    <clipPath
       id="clip39">
      <path
         id="path425"
         d="M 0,0 V 322 H 644 V 0 Z" />
    </clipPath>
  </defs>
  <metadata
     id="metadata5">
    <rdf:RDF>
      <cc:Work
         rdf:about="">
        <dc:format>image/svg+xml</dc:format>
        <dc:type
           rdf:resource="http://purl.org/dc/dcmitype/StillImage" />
        <dc:title></dc:title>
        <cc:license
           rdf:resource="http://creativecommons.org/licenses/by-sa/4.0/" />
        <dc:date>2018-12-05</dc:date>
        <dc:creator>
          <cc:Agent>
            <dc:title>Michael A. Rundel</dc:title>
          </cc:Agent>
        </dc:creator>
        <dc:rights>
          <cc:Agent>
            <dc:title>CC BY-SA 4.0</dc:title>
          </cc:Agent>
        </dc:rights>
        <dc:subject>
          <rdf:Bag>
            <rdf:li>physics torque seesaw equilibrum</rdf:li>
          </rdf:Bag>
        </dc:subject>
        <dc:description>Diagram of a balancing seesaw with equilibrium of torques</dc:description>
      </cc:Work>
      <cc:License
         rdf:about="http://creativecommons.org/licenses/by-sa/4.0/">
        <cc:permits
           rdf:resource="http://creativecommons.org/ns#Reproduction" />
        <cc:permits
           rdf:resource="http://creativecommons.org/ns#Distribution" />
        <cc:requires
           rdf:resource="http://creativecommons.org/ns#Notice" />
        <cc:requires
           rdf:resource="http://creativecommons.org/ns#Attribution" />
        <cc:permits
           rdf:resource="http://creativecommons.org/ns#DerivativeWorks" />
        <cc:requires
           rdf:resource="http://creativecommons.org/ns#ShareAlike" />
      </cc:License>
    </rdf:RDF>
  </metadata>
  <g
     transform="translate(-18.842119,-21.152708)"
     id="layer1">
    <rect
       ry="0.25001645"
       rx="0.25001645"
       y="46.272381"
       x="31.943012"
       height="12.500822"
       width="12.500822"
       id="rect5808"
       style="fill:#7db3ff;fill-opacity:1;stroke:#000000;stroke-width:0.49612638;stroke-linecap:round;stroke-linejoin:bevel;stroke-miterlimit:4;stroke-dasharray:none;stroke-opacity:1" />
    <g
       id="g27"
       transform="matrix(0.32836753,0,0,0.32836753,3.0580973,2.3760784)"
       style="fill:#557895;fill-opacity:1;stroke-width:1;stroke-linecap:square;stroke-linejoin:miter;stroke-miterlimit:10;stroke-dasharray:none;stroke-dashoffset:0">
      <clipPath
         id="clipPath4299">
        <path
           id="path4297"
           d="M 0,0 V 322 H 644 V 0 Z" />
      </clipPath>
      <g
         style="fill:#557895;fill-opacity:1"
         id="g25"
         clip-path="url(#clip2)">
        <g
           id="g23"
           fill-rule="nonzero;"
           style="fill:#557895;fill-opacity:1;stroke:none">
          <path
             style="fill:#557895;fill-opacity:1"
             id="path21"
             d="m 307,176 -28,62 h 56 z" />
        </g>
        <!-- drawing style -->
      </g>
      <!-- clip2 -->
    </g>
    <rect
       y="80.343178"
       x="12.827471"
       height="28.213722"
       width="179.3709"
       id="rect5806"
       style="fill:#cccccc;fill-opacity:1;stroke:none;stroke-width:0.22886942;stroke-opacity:1" />
    <g
       id="g38"
       transform="matrix(0.32836753,0,0,0.32836753,3.0580973,2.3760784)"
       style="stroke-width:1;stroke-linecap:square;stroke-linejoin:miter;stroke-miterlimit:10;stroke-dasharray:none;stroke-dashoffset:0">
      <clipPath
         id="clipPath4307">
        <path
           id="path4305"
           d="M 0,0 V 322 H 644 V 0 Z" />
      </clipPath>
      <g
         id="g36"
         clip-path="url(#clip3)">
        <g
           id="g34"
           fill-rule="nonzero;"
           style="fill:#006400;fill-opacity:0.10196001;stroke:none">
          <path
             id="path32"
             d="m 107.15,201 c 13.81,0 25,-11.19 25,-25 h -25 z" />
        </g>
        <!-- drawing style -->
      </g>
      <!-- clip3 -->
    </g>
    <g
       id="g49"
       transform="matrix(0.32836753,0,0,0.32836753,3.0580973,2.3760784)"
       style="stroke-width:1;stroke-linecap:square;stroke-linejoin:miter;stroke-miterlimit:10;stroke-dasharray:none;stroke-dashoffset:0">
      <clipPath
         id="clipPath4315">
        <path
           id="path4313"
           d="M 0,0 V 322 H 644 V 0 Z" />
      </clipPath>
      <g
         id="g47"
         clip-path="url(#clip4)">
        <g
           id="g45"
           style="fill:none;stroke:#006400;stroke-linecap:round;stroke-linejoin:round;stroke-opacity:1">
          <path
             id="path43"
             d="m 107.15,201 c 13.81,0 25,-11.19 25,-25 h -25 z" />
        </g>
        <!-- drawing style -->
      </g>
      <!-- clip4 -->
    </g>
    <g
       id="g60"
       transform="matrix(0.32836753,0,0,0.32836753,3.0580973,2.3760784)"
       style="stroke-width:1;stroke-linecap:square;stroke-linejoin:miter;stroke-miterlimit:10;stroke-dasharray:none;stroke-dashoffset:0">
      <clipPath
         id="clipPath4323">
        <path
           id="path4321"
           d="M 0,0 V 322 H 644 V 0 Z" />
      </clipPath>
      <g
         id="g58"
         clip-path="url(#clip5)">
        <g
           id="g56"
           fill-rule="nonzero;"
           style="fill:#006400;fill-opacity:1;stroke:none">
          <path
             id="path54"
             d="m 119.55,186.4 c 0,1.1 -0.89,2 -2,2 -1.1,0 -2,-0.9 -2,-2 0,-1.11 0.9,-2 2,-2 1.11,0 2,0.89 2,2 z" />
        </g>
        <!-- drawing style -->
      </g>
      <!-- clip5 -->
    </g>
    <g
       id="g71"
       transform="matrix(0.32836753,0,0,0.32836753,9.4080976,2.3760784)"
       style="stroke-width:1;stroke-linecap:square;stroke-linejoin:miter;stroke-miterlimit:10;stroke-dasharray:none;stroke-dashoffset:0">
      <clipPath
         id="clipPath4331">
        <path
           id="path4329"
           d="M 0,0 V 322 H 644 V 0 Z" />
      </clipPath>
      <g
         id="g69"
         clip-path="url(#clip6)">
        <g
           id="g67"
           fill-rule="nonzero;"
           style="fill:#006400;fill-opacity:0.10196;stroke:none">
          <path
             id="path65"
             d="m 377.58,176 c 0,16.57 13.43,30 30,30 v -30 z" />
        </g>
        <!-- drawing style -->
      </g>
      <!-- clip6 -->
    </g>
    <g
       id="g82"
       transform="matrix(0.32836753,0,0,0.32836753,9.4080976,2.3760784)"
       style="stroke-width:1;stroke-linecap:square;stroke-linejoin:miter;stroke-miterlimit:10;stroke-dasharray:none;stroke-dashoffset:0">
      <clipPath
         id="clipPath4339">
        <path
           id="path4337"
           d="M 0,0 V 322 H 644 V 0 Z" />
      </clipPath>
      <g
         id="g80"
         clip-path="url(#clip7)">
        <g
           id="g78"
           style="fill:none;stroke:#006400;stroke-linecap:round;stroke-linejoin:round;stroke-opacity:1">
          <path
             id="path76"
             d="m 377.58,176 c 0,16.57 13.43,30 30,30 v -30 z" />
        </g>
        <!-- drawing style -->
      </g>
      <!-- clip7 -->
    </g>
    <g
       id="g93"
       transform="matrix(0.32836753,0,0,0.32836753,9.4080976,2.3760784)"
       style="stroke-width:1;stroke-linecap:square;stroke-linejoin:miter;stroke-miterlimit:10;stroke-dasharray:none;stroke-dashoffset:0">
      <clipPath
         id="clipPath4347">
        <path
           id="path4345"
           d="M 0,0 V 322 H 644 V 0 Z" />
      </clipPath>
      <g
         id="g91"
         clip-path="url(#clip8)">
        <g
           id="g89"
           fill-rule="nonzero;"
           style="fill:#006400;fill-opacity:1;stroke:none">
          <path
             id="path87"
             d="m 397.1,188.48 c 0,1.1 -0.9,2 -2,2 -1.1,0 -2,-0.9 -2,-2 0,-1.11 0.9,-2 2,-2 1.1,0 2,0.89 2,2 z" />
        </g>
        <!-- drawing style -->
      </g>
      <!-- clip8 -->
    </g>
    <g
       id="g104"
       transform="matrix(0.32836753,0,0,0.32836753,3.0580973,2.3760784)"
       style="stroke:#c19a6b;stroke-width:1;stroke-linecap:square;stroke-linejoin:miter;stroke-miterlimit:10;stroke-dasharray:none;stroke-dashoffset:0;stroke-opacity:1">
      <clipPath
         id="clipPath4355">
        <path
           id="path4353"
           d="M 0,0 V 322 H 644 V 0 Z" />
      </clipPath>
      <g
         style="stroke:#c19a6b;stroke-opacity:1"
         id="g102"
         clip-path="url(#clip9)">
        <g
           id="g100"
           style="fill:none;stroke:#c19a6b;stroke-width:6.5;stroke-linecap:round;stroke-linejoin:round;stroke-opacity:1">
          <path
             style="stroke:#c19a6b;stroke-opacity:1"
             id="path98"
             d="M 67,176 H 547" />
        </g>
        <!-- drawing style -->
      </g>
      <!-- clip9 -->
    </g>
    <g
       id="g148"
       transform="matrix(0.32836753,0,0,0.32836753,3.0580973,2.3760784)"
       style="stroke-width:1;stroke-linecap:square;stroke-linejoin:miter;stroke-miterlimit:10;stroke-dasharray:none;stroke-dashoffset:0">
      <clipPath
         id="clipPath4387">
        <path
           id="path4385"
           d="M 0,0 V 322 H 644 V 0 Z" />
      </clipPath>
      <g
         id="g146"
         clip-path="url(#clip13)">
        <g
           id="g144"
           style="fill:none;stroke:#000000;stroke-width:2.5;stroke-linecap:round;stroke-linejoin:round;stroke-opacity:1">
          <path
             id="path142"
             d="M 307,176 H 124.15" />
        </g>
        <!-- drawing style -->
      </g>
      <!-- clip13 -->
    </g>
    <g
       id="g192"
       transform="matrix(0.47113195,0,0,0.32836753,-40.770581,2.3760784)"
       style="stroke-width:1;stroke-linecap:square;stroke-linejoin:miter;stroke-miterlimit:10;stroke-dasharray:none;stroke-dashoffset:0">
      <clipPath
         id="clipPath4419">
        <path
           id="path4417"
           d="M 0,0 V 322 H 644 V 0 Z" />
      </clipPath>
      <g
         id="g190"
         clip-path="url(#clip17)">
        <g
           id="g188"
           style="fill:none;stroke:#000000;stroke-width:2.5;stroke-linecap:round;stroke-linejoin:round;stroke-opacity:1">
          <path
             id="path186"
             d="m 307,176 h 83.58" />
        </g>
        <!-- drawing style -->
      </g>
      <!-- clip17 -->
    </g>
    <g
       style="stroke:#000000;stroke-opacity:1"
       transform="matrix(1.2500823,0,0,1.2500823,-20.757802,-24.327034)"
       id="g1257" />
    <g
       id="g236"
       transform="matrix(0.32836753,0,0,0.32836753,3.0580973,2.3760784)"
       style="stroke-width:1;stroke-linecap:square;stroke-linejoin:miter;stroke-miterlimit:10;stroke-dasharray:none;stroke-dashoffset:0">
      <clipPath
         id="clipPath4451">
        <path
           id="path4449"
           d="M 0,0 V 322 H 644 V 0 Z" />
      </clipPath>
      <g
         id="g234"
         clip-path="url(#clip21)">
        <g
           id="g232"
           style="fill:none;stroke:#ff0000;stroke-width:2.5;stroke-linecap:round;stroke-linejoin:round;stroke-opacity:1">
          <path
             id="path230"
             d="m 107.15,176 v 33.09" />
        </g>
        <!-- drawing style -->
      </g>
      <!-- clip21 -->
    </g>
    <g
       id="g247"
       transform="matrix(0.32836753,0,0,0.32836753,3.0580973,2.3760784)"
       style="stroke-width:1;stroke-linecap:square;stroke-linejoin:miter;stroke-miterlimit:10;stroke-dasharray:none;stroke-dashoffset:0">
      <clipPath
         id="clipPath4459">
        <path
           id="path4457"
           d="M 0,0 V 322 H 644 V 0 Z" />
      </clipPath>
      <g
         id="g245"
         clip-path="url(#clip22)">
        <g
           id="g243"
           fill-rule="nonzero;"
           style="fill:#ff0000;fill-opacity:1;stroke:none">
          <path
             id="path241"
             d="m 107.15,226.09 -4.25,-17 h 8.5 z" />
        </g>
        <!-- drawing style -->
      </g>
      <!-- clip22 -->
    </g>
    <g
       style="stroke:#ff0000;stroke-opacity:1"
       transform="matrix(1.2500823,0,0,1.2500823,-20.256639,-15.473148)"
       id="g1285">
      <g
         style="stroke-width:1;stroke-linecap:square;stroke-linejoin:miter;stroke-miterlimit:10;stroke-dasharray:none;stroke-dashoffset:0;stroke:#ff0000;stroke-opacity:1"
         transform="matrix(0.26267674,0,0,0.26267674,19.051465,21.361088)"
         id="g258">
        <clipPath
           id="clipPath4467">
          <path
             d="M 0,0 V 322 H 644 V 0 Z"
             id="path4465" />
        </clipPath>
        <g
           style="stroke:#ff0000;stroke-opacity:1"
           clip-path="url(#clip23)"
           id="g256">
          <g
             style="fill:#ff0000;fill-opacity:1;stroke:#ff0000;stroke-opacity:1"
             fill-rule="nonzero;"
             id="g254">
            <path
               style="stroke:#ff0000;stroke-opacity:1"
               d="m 81.312,200 v -11.45 h 7.735 v 1.34 h -6.219 v 3.55 h 5.375 v 1.36 h -5.375 v 5.2 z"
               id="path252" />
          </g>
          <!-- drawing style -->
        </g>
        <!-- clip23 -->
      </g>
      <g
         style="stroke-width:1;stroke-linecap:square;stroke-linejoin:miter;stroke-miterlimit:10;stroke-dasharray:none;stroke-dashoffset:0;stroke:#ff0000;stroke-opacity:1"
         transform="matrix(0.26267674,0,0,0.26267674,19.051465,21.361088)"
         id="g269">
        <clipPath
           id="clipPath4475">
          <path
             d="M 0,0 V 322 H 644 V 0 Z"
             id="path4473" />
        </clipPath>
        <g
           style="stroke:#ff0000;stroke-opacity:1"
           clip-path="url(#clip24)"
           id="g267">
          <g
             style="fill:#ff0000;fill-opacity:1;stroke:#ff0000;stroke-opacity:1"
             fill-rule="nonzero;"
             id="g265">
            <path
               style="stroke:#ff0000;stroke-opacity:1"
               d="m 94.992,207 h -1.234 v -7.84 q -0.438,0.42 -1.164,0.85 -0.727,0.43 -1.289,0.63 v -1.19 q 1.031,-0.48 1.804,-1.17 0.774,-0.69 1.086,-1.34 h 0.797 z"
               id="path263" />
          </g>
          <!-- drawing style -->
        </g>
        <!-- clip24 -->
      </g>
    </g>
    <g
       id="g280"
       transform="matrix(0.32836753,0,0,0.32836753,9.4464026,1.5458834)"
       style="stroke-width:1;stroke-linecap:square;stroke-linejoin:miter;stroke-miterlimit:10;stroke-dasharray:none;stroke-dashoffset:0">
      <clipPath
         id="clipPath4483">
        <path
           id="path4481"
           d="M 0,0 V 322 H 644 V 0 Z" />
      </clipPath>
      <g
         id="g278"
         clip-path="url(#clip25)">
        <g
           id="g276"
           style="fill:none;stroke:#ff0000;stroke-width:2.5;stroke-linecap:round;stroke-linejoin:round;stroke-opacity:1">
          <path
             id="path274"
             d="m 407.58,176 v 82.89" />
        </g>
        <!-- drawing style -->
      </g>
      <!-- clip25 -->
    </g>
    <g
       id="g291"
       transform="matrix(0.32836753,0,0,0.32836753,9.4080976,1.317745)"
       style="stroke-width:1;stroke-linecap:square;stroke-linejoin:miter;stroke-miterlimit:10;stroke-dasharray:none;stroke-dashoffset:0">
      <clipPath
         id="clipPath4491">
        <path
           id="path4489"
           d="M 0,0 V 322 H 644 V 0 Z" />
      </clipPath>
      <g
         id="g289"
         clip-path="url(#clip26)">
        <g
           id="g287"
           fill-rule="nonzero;"
           style="fill:#ff0000;fill-opacity:1;stroke:none">
          <path
             id="path285"
             d="m 407.58,275.89 -4.25,-17 h 8.5 z" />
        </g>
        <!-- drawing style -->
      </g>
      <!-- clip26 -->
    </g>
    <g
       style="stroke:#ff0000;stroke-opacity:1"
       transform="matrix(1.2500823,0,0,1.2500823,-14.045686,-6.7863201)"
       id="g1271">
      <g
         style="stroke:#ff0000;stroke-width:1;stroke-linecap:square;stroke-linejoin:miter;stroke-miterlimit:10;stroke-dasharray:none;stroke-dashoffset:0;stroke-opacity:1"
         transform="matrix(0.26267674,0,0,0.26267674,19.051465,21.361088)"
         id="g302">
        <clipPath
           id="clipPath4499">
          <path
             d="M 0,0 V 322 H 644 V 0 Z"
             id="path4497" />
        </clipPath>
        <g
           style="stroke:#ff0000;stroke-opacity:1"
           clip-path="url(#clip27)"
           id="g300">
          <g
             style="fill:#ff0000;fill-opacity:1;stroke:#ff0000;stroke-opacity:1"
             fill-rule="nonzero;"
             id="g298">
            <path
               style="stroke:#ff0000;stroke-opacity:1"
               d="m 419.31,227 v -11.45 h 7.74 v 1.34 h -6.22 v 3.55 h 5.37 v 1.36 h -5.37 v 5.2 z"
               id="path296" />
          </g>
          <!-- drawing style -->
        </g>
        <!-- clip27 -->
      </g>
      <g
         style="stroke:#ff0000;stroke-width:1;stroke-linecap:square;stroke-linejoin:miter;stroke-miterlimit:10;stroke-dasharray:none;stroke-dashoffset:0;stroke-opacity:1"
         transform="matrix(0.26267674,0,0,0.26267674,19.051465,21.361088)"
         id="g313">
        <clipPath
           id="clipPath4507">
          <path
             d="M 0,0 V 322 H 644 V 0 Z"
             id="path4505" />
        </clipPath>
        <g
           style="stroke:#ff0000;stroke-opacity:1"
           clip-path="url(#clip28)"
           id="g311">
          <g
             style="fill:#ff0000;fill-opacity:1;stroke:#ff0000;stroke-opacity:1"
             fill-rule="nonzero;"
             id="g309">
            <path
               style="stroke:#ff0000;stroke-opacity:1"
               d="M 434.82,232.81 V 234 h -6.62 q -0.02,-0.44 0.14,-0.86 0.26,-0.67 0.82,-1.33 0.55,-0.65 1.6,-1.51 1.64,-1.35 2.21,-2.13 0.57,-0.78 0.57,-1.48 0,-0.74 -0.52,-1.24 -0.53,-0.5 -1.36,-0.5 -0.89,0 -1.43,0.53 -0.53,0.54 -0.53,1.49 l -1.27,-0.14 q 0.12,-1.41 0.98,-2.15 0.85,-0.74 2.27,-0.74 1.45,0 2.29,0.79 0.83,0.8 0.83,1.99 0,0.61 -0.24,1.19 -0.24,0.57 -0.81,1.21 -0.57,0.65 -1.9,1.77 -1.11,0.92 -1.42,1.26 -0.31,0.33 -0.52,0.66 z"
               id="path307" />
          </g>
          <!-- drawing style -->
        </g>
        <!-- clip28 -->
      </g>
    </g>
    <g
       id="g324"
       transform="matrix(0.32836753,0,0,0.32836753,3.0580973,2.3760784)"
       style="stroke-width:1;stroke-linecap:square;stroke-linejoin:miter;stroke-miterlimit:10;stroke-dasharray:none;stroke-dashoffset:0">
      <clipPath
         id="clipPath4515">
        <path
           id="path4513"
           d="M 0,0 V 322 H 644 V 0 Z" />
      </clipPath>
      <g
         id="g322"
         clip-path="url(#clip29)">
        <g
           id="g320"
           fill-rule="nonzero;"
           style="fill:#ffffff;fill-opacity:1;stroke:none">
          <path
             id="path318"
             d="m 312,176 c 0,2.76 -2.24,5 -5,5 -2.76,0 -5,-2.24 -5,-5 0,-2.76 2.24,-5 5,-5 2.76,0 5,2.24 5,5 z" />
        </g>
        <!-- drawing style -->
      </g>
      <!-- clip29 -->
    </g>
    <g
       id="g335"
       transform="matrix(0.32836753,0,0,0.32836753,3.0580973,2.3760784)"
       style="stroke-width:1;stroke-linecap:square;stroke-linejoin:miter;stroke-miterlimit:10;stroke-dasharray:none;stroke-dashoffset:0">
      <clipPath
         id="clipPath4523">
        <path
           id="path4521"
           d="M 0,0 V 322 H 644 V 0 Z" />
      </clipPath>
      <g
         id="g333"
         clip-path="url(#clip30)">
        <g
           id="g331"
           style="fill:none;stroke:#000000;stroke-linecap:round;stroke-linejoin:round;stroke-opacity:1">
          <path
             id="path329"
             d="m 312,176 c 0,2.76 -2.24,5 -5,5 -2.76,0 -5,-2.24 -5,-5 0,-2.76 2.24,-5 5,-5 2.76,0 5,2.24 5,5 z" />
        </g>
        <!-- drawing style -->
      </g>
      <!-- clip30 -->
    </g>
    <g
       id="g346"
       transform="matrix(0.32836753,0,0,0.32836753,3.0580973,2.3760784)"
       style="stroke-width:1;stroke-linecap:square;stroke-linejoin:miter;stroke-miterlimit:10;stroke-dasharray:none;stroke-dashoffset:0">
      <clipPath
         id="clipPath4531">
        <path
           id="path4529"
           d="M 0,0 V 322 H 644 V 0 Z" />
      </clipPath>
      <g
         id="g344"
         clip-path="url(#clip31)">
        <g
           id="g342"
           fill-rule="nonzero;"
           style="fill:#ffffff;fill-opacity:1;stroke:none">
          <path
             id="path340"
             d="m 310.97,166 4.41,-11.45 h 1.64 L 321.7,166 h -1.73 l -1.33,-3.47 h -4.8 l -1.25,3.47 z m 3.31,-4.7 h 3.89 l -1.2,-3.18 q -0.55,-1.45 -0.81,-2.37 -0.22,1.09 -0.61,2.19 z" />
        </g>
        <!-- drawing style -->
      </g>
      <!-- clip31 -->
    </g>
    <g
       id="g401"
       transform="matrix(0.32836753,0,0,0.32836753,3.0580973,2.3760784)"
       style="fill:#ffffff;fill-opacity:1;stroke-width:1;stroke-linecap:square;stroke-linejoin:miter;stroke-miterlimit:10;stroke-dasharray:none;stroke-dashoffset:0">
      <clipPath
         id="clipPath4571">
        <path
           id="path4569"
           d="M 0,0 V 322 H 644 V 0 Z" />
      </clipPath>
      <g
         style="fill:#ffffff;fill-opacity:1"
         id="g399"
         clip-path="url(#clip36)">
        <g
           id="g397"
           fill-rule="nonzero;"
           style="fill:#ffffff;fill-opacity:1;stroke:none">
          <path
             style="fill:#ffffff;fill-opacity:1"
             id="path395"
             d="m 112,176 c 0,2.76 -2.24,5 -5,5 -2.76,0 -5,-2.24 -5,-5 0,-2.76 2.24,-5 5,-5 2.76,0 5,2.24 5,5 z" />
        </g>
        <!-- drawing style -->
      </g>
      <!-- clip36 -->
    </g>
    <g
       id="g412"
       transform="matrix(0.32836753,0,0,0.32836753,3.0580973,2.3760784)"
       style="stroke-width:1;stroke-linecap:square;stroke-linejoin:miter;stroke-miterlimit:10;stroke-dasharray:none;stroke-dashoffset:0">
      <clipPath
         id="clipPath4579">
        <path
           id="path4577"
           d="M 0,0 V 322 H 644 V 0 Z" />
      </clipPath>
      <g
         id="g410"
         clip-path="url(#clip37)">
        <g
           id="g408"
           style="fill:none;stroke:#000000;stroke-linecap:round;stroke-linejoin:round;stroke-opacity:1">
          <path
             id="path406"
             d="m 112,176 c 0,2.76 -2.24,5 -5,5 -2.76,0 -5,-2.24 -5,-5 0,-2.76 2.24,-5 5,-5 2.76,0 5,2.24 5,5 z" />
        </g>
        <!-- drawing style -->
      </g>
      <!-- clip37 -->
    </g>
    <g
       id="g423"
       transform="matrix(0.32836753,0,0,0.32836753,9.4080977,2.3760784)"
       style="fill:#ffffff;fill-opacity:1;stroke-width:1;stroke-linecap:square;stroke-linejoin:miter;stroke-miterlimit:10;stroke-dasharray:none;stroke-dashoffset:0">
      <clipPath
         id="clipPath4587">
        <path
           id="path4585"
           d="M 0,0 V 322 H 644 V 0 Z" />
      </clipPath>
      <g
         style="fill:#ffffff;fill-opacity:1"
         id="g421"
         clip-path="url(#clip38)">
        <g
           id="g419"
           fill-rule="nonzero;"
           style="fill:#ffffff;fill-opacity:1;stroke:none">
          <path
             style="fill:#ffffff;fill-opacity:1"
             id="path417"
             d="m 413,176 c 0,2.76 -2.24,5 -5,5 -2.76,0 -5,-2.24 -5,-5 0,-2.76 2.24,-5 5,-5 2.76,0 5,2.24 5,5 z" />
        </g>
        <!-- drawing style -->
      </g>
      <!-- clip38 -->
    </g>
    <g
       id="g434"
       transform="matrix(0.32836753,0,0,0.32836753,9.4080977,2.3760784)"
       style="stroke-width:1;stroke-linecap:square;stroke-linejoin:miter;stroke-miterlimit:10;stroke-dasharray:none;stroke-dashoffset:0">
      <clipPath
         id="clipPath4595">
        <path
           id="path4593"
           d="M 0,0 V 322 H 644 V 0 Z" />
      </clipPath>
      <g
         id="g432"
         clip-path="url(#clip39)">
        <g
           id="g430"
           style="fill:none;stroke:#000000;stroke-linecap:round;stroke-linejoin:round;stroke-opacity:1">
          <path
             id="path428"
             d="m 413,176 c 0,2.76 -2.24,5 -5,5 -2.76,0 -5,-2.24 -5,-5 0,-2.76 2.24,-5 5,-5 2.76,0 5,2.24 5,5 z" />
        </g>
        <!-- drawing style -->
      </g>
      <!-- clip39 -->
    </g>
    <g
       id="g159"
       transform="matrix(0.32836753,0,0,0.32836753,3.0580973,2.3760784)"
       style="stroke-width:1;stroke-linecap:square;stroke-linejoin:miter;stroke-miterlimit:10;stroke-dasharray:none;stroke-dashoffset:0">
      <clipPath
         id="clipPath4395">
        <path
           id="path4393"
           d="M 0,0 V 322 H 644 V 0 Z" />
      </clipPath>
      <g
         id="g157"
         clip-path="url(#clip14)">
        <g
           id="g155"
           fill-rule="nonzero;"
           style="fill:#000000;fill-opacity:1;stroke:none">
          <path
             id="path153"
             d="m 107.15,176 17,-4.25 v 8.5 z" />
        </g>
        <!-- drawing style -->
      </g>
      <!-- clip14 -->
    </g>
    <g
       id="g203"
       transform="matrix(0.32836753,0,0,0.32836753,10.122335,2.3760784)"
       style="stroke-width:1;stroke-linecap:square;stroke-linejoin:miter;stroke-miterlimit:10;stroke-dasharray:none;stroke-dashoffset:0">
      <clipPath
         id="clipPath4427">
        <path
           id="path4425"
           d="M 0,0 V 322 H 644 V 0 Z" />
      </clipPath>
      <g
         id="g201"
         clip-path="url(#clip18)">
        <g
           id="g199"
           fill-rule="nonzero;"
           style="fill:#000000;fill-opacity:1;stroke:none">
          <path
             id="path197"
             d="m 407.58,176 -17,4.25 v -8.5 z" />
        </g>
        <!-- drawing style -->
      </g>
      <!-- clip18 -->
    </g>
    <rect
       style="fill:#7db3ff;fill-opacity:1;stroke:#000000;stroke-width:0.496126;stroke-linecap:round;stroke-linejoin:bevel;stroke-miterlimit:4;stroke-dasharray:none;stroke-opacity:1"
       id="rect5812"
       width="12.500822"
       height="12.500822"
       x="136.60245"
       y="46.837746"
       rx="0.25001645"
       ry="0.25001645" />
    <rect
       ry="0.25001645"
       rx="0.25001645"
       y="34.336922"
       x="136.60245"
       height="12.500822"
       width="12.500822"
       id="rect5814"
       style="fill:#7db3ff;fill-opacity:1;stroke:#000000;stroke-width:0.496126;stroke-linecap:round;stroke-linejoin:bevel;stroke-miterlimit:4;stroke-dasharray:none;stroke-opacity:1" />
    <text
       id="text1096"
       y="56.070232"
       x="67.849167"
       style="font-style:normal;font-weight:normal;font-size:10.5833px;line-height:1.25;font-family:sans-serif;fill:#000000;fill-opacity:1;stroke:none;stroke-width:0.264583"
       xml:space="preserve"><tspan
         style="font-style:normal;font-variant:normal;font-weight:normal;font-stretch:normal;font-size:7.05556px;font-family:sans-serif;-inkscape-font-specification:'sans-serif, Normal';font-variant-ligatures:normal;font-variant-caps:normal;font-variant-numeric:normal;font-variant-east-asian:normal;stroke-width:0.264583"
         y="56.070232"
         x="67.849167"
         id="tspan1094">r</tspan></text>
    <text
       id="text1100"
       y="56.376526"
       x="114.09958"
       style="font-style:normal;font-weight:normal;font-size:10.5833px;line-height:1.25;font-family:sans-serif;fill:#000000;fill-opacity:1;stroke:none;stroke-width:0.264583"
       xml:space="preserve"><tspan
         style="font-style:normal;font-variant:normal;font-weight:normal;font-stretch:normal;font-size:7.05556px;font-family:sans-serif;-inkscape-font-specification:'sans-serif, Normal';font-variant-ligatures:normal;font-variant-caps:normal;font-variant-numeric:normal;font-variant-east-asian:normal;stroke-width:0.264583"
         y="56.376526"
         x="114.09958"
         id="tspan1098">r</tspan></text>
    <text
       id="text1104"
       y="57.907997"
       x="71.830986"
       style="font-style:normal;font-weight:normal;font-size:10.5833px;line-height:1.25;font-family:sans-serif;fill:#000000;fill-opacity:1;stroke:none;stroke-width:0.264583"
       xml:space="preserve"><tspan
         style="font-style:normal;font-variant:normal;font-weight:normal;font-stretch:normal;font-size:5.29167px;font-family:sans-serif;-inkscape-font-specification:'sans-serif, Normal';font-variant-ligatures:normal;font-variant-caps:normal;font-variant-numeric:normal;font-variant-east-asian:normal;stroke-width:0.264583"
         y="57.907997"
         x="71.830986"
         id="tspan1102">1</tspan></text>
    <text
       id="text1108"
       y="57.907997"
       x="118.3877"
       style="font-style:normal;font-weight:normal;font-size:10.5833px;line-height:1.25;font-family:sans-serif;fill:#000000;fill-opacity:1;stroke:none;stroke-width:0.264583"
       xml:space="preserve"><tspan
         style="font-style:normal;font-variant:normal;font-weight:normal;font-stretch:normal;font-size:5.29167px;font-family:sans-serif;-inkscape-font-specification:'sans-serif, Normal';font-variant-ligatures:normal;font-variant-caps:normal;font-variant-numeric:normal;font-variant-east-asian:normal;stroke-width:0.264583"
         y="57.907997"
         x="118.3877"
         id="tspan1106">2</tspan></text>
  </g>
</svg>
